<svg width="1079" height="645" viewBox="0 0 1079 645" fill="none" xmlns="http://www.w3.org/2000/svg">
<g clip-path="url(#clip0_119_496)">
<path d="M826.108 637.706C812.294 626.035 803.903 607.598 806.103 589.649C808.304 571.701 821.933 555.201 839.612 551.389C857.291 547.578 877.444 558.129 882.814 575.396C885.769 542.105 889.175 507.419 906.877 479.069C922.906 453.398 950.668 435.03 980.756 431.744C1010.84 428.458 1042.52 440.869 1061.29 464.614C1080.05 488.358 1084.65 522.878 1071.5 550.139C1061.82 570.221 1043.99 585.167 1025.3 597.325C964.908 636.284 892.479 652.127 821.337 641.939L826.108 637.706Z" fill="#F2F2F2"/>
<path d="M1031.53 441.557C1006.71 461.775 983.932 484.388 963.537 509.068C931.618 547.56 905.789 590.717 886.95 637.035C885.571 640.413 891.058 641.884 892.422 638.543C923.247 563.267 972.455 496.92 1035.55 445.569C1038.38 443.263 1034.34 439.269 1031.53 441.557Z" fill="white"/>
<path d="M347.348 634.535C366.321 618.505 377.846 593.182 374.824 568.529C371.801 543.877 353.082 521.214 328.799 515.979C304.517 510.744 276.837 525.235 269.461 548.952C265.402 503.227 260.725 455.586 236.411 416.647C214.396 381.388 176.264 356.159 134.938 351.646C93.6127 347.133 50.1018 364.179 24.3284 396.793C-1.44499 429.406 -7.7555 476.819 10.2955 514.262C23.5931 541.845 48.0919 562.372 73.7605 579.072C155.652 632.352 257.239 654.572 353.9 640.349" fill="#F2F2F2"/>
<path d="M65.1949 365.124C99.2938 392.894 130.576 423.953 158.589 457.851C186.606 491.714 211.273 528.215 232.241 566.84C243.962 588.507 254.491 610.798 263.781 633.613C265.675 638.254 258.138 640.274 256.265 635.684C239.81 595.462 219.451 556.949 195.482 520.698C171.63 484.578 144.329 450.856 113.963 420.008C96.7888 402.568 78.668 386.085 59.6833 370.635C55.7919 367.467 61.3356 361.982 65.1948 365.124L65.1949 365.124Z" fill="white"/>
<path d="M774.523 643.588H321.84V179.188C321.84 80.3831 402.234 0 501.053 0H595.311C694.129 0 774.523 80.3831 774.523 179.188V643.588Z" fill="#F2F2F2"/>
<path d="M680.266 643.588H321.84V179.188C321.741 141.328 333.731 104.425 356.065 73.8523C356.888 72.7303 357.709 71.6228 358.556 70.5275C369.359 56.3612 382.214 43.8851 396.698 33.5112C397.516 32.9159 398.338 32.3311 399.172 31.7461C411.291 23.3602 424.402 16.5048 438.204 11.3361C439.024 11.0255 439.858 10.7142 440.693 10.4157C453.176 5.96154 466.116 2.91045 479.274 1.31878C480.09 1.20736 480.928 1.12017 481.765 1.03298C494.588 -0.337858 507.52 -0.337858 520.343 1.03298C521.178 1.12017 522.016 1.20735 522.841 1.31997C535.996 2.91174 548.933 5.96246 561.413 10.4158C562.248 10.7143 563.082 11.0255 563.904 11.3367C577.536 16.4403 590.492 23.1933 602.483 31.4452C603.316 32.0174 604.15 32.6023 604.972 33.1872C613.09 38.9817 620.716 45.4371 627.771 52.4874C633.429 58.1426 638.701 64.1707 643.553 70.5312C644.397 71.6229 645.218 72.7304 646.04 73.8505C668.374 104.424 680.365 141.327 680.266 179.188V643.588Z" fill="#CCCCCC"/>
<path d="M651.121 435.879C662.08 435.879 670.964 426.996 670.964 416.038C670.964 405.08 662.08 396.197 651.121 396.197C640.161 396.197 631.277 405.08 631.277 416.038C631.277 426.996 640.161 435.879 651.121 435.879Z" fill="#007F5E"/>
<path d="M737.44 629.678H722.234L715 571.039L737.442 571.04L737.44 629.678Z" fill="#FFB8B8"/>
<path d="M711.373 625.334H740.697V643.795H692.91C692.91 641.371 693.388 638.97 694.315 636.73C695.243 634.491 696.603 632.455 698.318 630.741C700.032 629.027 702.067 627.667 704.308 626.739C706.548 625.812 708.948 625.334 711.373 625.334V625.334Z" fill="#2F2E41"/>
<path d="M813.094 629.678H797.888L790.654 571.039L813.096 571.04L813.094 629.678Z" fill="#FFB8B8"/>
<path d="M787.027 625.334H816.351V643.795H768.564C768.564 641.371 769.042 638.97 769.969 636.73C770.897 634.491 772.257 632.455 773.972 630.741C775.686 629.027 777.722 627.667 779.962 626.739C782.202 625.812 784.603 625.334 787.027 625.334V625.334Z" fill="#2F2E41"/>
<path d="M661.164 419.969C660.07 418.357 659.343 416.526 659.033 414.603C658.724 412.68 658.84 410.713 659.373 408.84C659.907 406.967 660.844 405.233 662.12 403.762C663.396 402.29 664.979 401.116 666.758 400.322L718.445 257.882L743.879 271.759L684.863 407.881C685.998 410.957 685.966 414.343 684.772 417.397C683.577 420.45 681.304 422.96 678.383 424.45C675.462 425.94 672.095 426.307 668.922 425.481C665.748 424.655 662.988 422.694 661.164 419.969V419.969Z" fill="#FFB8B8"/>
<path d="M805.327 446.734C803.637 445.765 802.18 444.438 801.059 442.845C799.938 441.253 799.179 439.434 798.837 437.517C798.495 435.6 798.578 433.631 799.079 431.749C799.58 429.867 800.488 428.118 801.739 426.625L785.726 275.946L814.67 277.268L821.325 425.48C823.695 427.747 825.15 430.804 825.416 434.072C825.682 437.34 824.739 440.592 822.767 443.212C820.795 445.832 817.931 447.637 814.716 448.287C811.502 448.936 808.161 448.383 805.327 446.734V446.734Z" fill="#FFB8B8"/>
<path d="M759.152 231.498C775.975 231.498 789.613 217.862 789.613 201.041C789.613 184.22 775.975 170.584 759.152 170.584C742.329 170.584 728.691 184.22 728.691 201.041C728.691 217.862 742.329 231.498 759.152 231.498Z" fill="#FFB8B8"/>
<path d="M805.132 412.465H713.297L713.407 411.751C713.572 410.683 729.774 304.562 717.825 269.844C716.626 266.432 716.731 262.697 718.121 259.359C719.51 256.02 722.086 253.313 725.352 251.76H725.352C742.432 243.717 775.219 233.814 802.892 257.847C806.964 261.442 810.144 265.935 812.18 270.97C814.216 276.005 815.053 281.445 814.623 286.859L805.132 412.465Z" fill="#007F5E"/>
<path d="M730.935 320.245L689.59 311.858L708.97 265.939C710.13 261.491 713.006 257.685 716.969 255.356C720.932 253.026 725.657 252.363 730.107 253.512C734.558 254.661 738.372 257.528 740.711 261.484C743.051 265.441 743.726 270.163 742.587 274.616L730.935 320.245Z" fill="#007F5E"/>
<path d="M783.888 335.817L781.402 278.847C779.517 268.138 785.649 258.014 795.079 256.359C804.511 254.71 813.721 262.138 815.615 272.926L824.958 326.158L783.888 335.817Z" fill="#007F5E"/>
<path d="M802.077 405.645C816.853 461.914 818.465 533.456 814.479 611.494L794.635 609.014L758.669 460.207L738.825 611.494L716.501 610.254C709.831 528.373 703.338 458.08 714.02 411.845L802.077 405.645Z" fill="#2F2E41"/>
<path d="M779.223 224.579C773.54 230.631 762.987 227.382 762.246 219.114C762.188 218.472 762.192 217.826 762.259 217.185C762.641 213.522 764.757 210.197 764.251 206.33C764.136 205.367 763.777 204.45 763.209 203.665C758.68 197.602 748.05 206.377 743.776 200.888C741.156 197.522 744.236 192.224 742.225 188.462C739.571 183.497 731.71 185.946 726.78 183.228C721.294 180.202 721.623 171.788 725.233 166.669C729.637 160.428 737.357 157.097 744.982 156.617C752.606 156.137 760.178 158.198 767.297 160.971C775.384 164.123 783.404 168.478 788.381 175.588C794.434 184.236 795.016 195.861 791.989 205.972C790.148 212.123 783.864 219.636 779.223 224.579Z" fill="#2F2E41"/>
<path d="M1041.77 644.386H126.116C125.725 644.385 125.351 644.229 125.075 643.952C124.799 643.675 124.644 643.3 124.644 642.91C124.644 642.519 124.799 642.144 125.075 641.867C125.351 641.59 125.725 641.434 126.116 641.433H1041.77C1042.16 641.434 1042.54 641.59 1042.81 641.867C1043.09 642.144 1043.24 642.519 1043.24 642.91C1043.24 643.3 1043.09 643.675 1042.81 643.952C1042.54 644.229 1042.16 644.385 1041.77 644.386V644.386Z" fill="#3F3D56"/>
<path d="M581.668 509.042H420.438C418.315 509.054 416.273 508.223 414.762 506.731C413.251 505.24 412.393 503.21 412.376 501.087V141.261C412.393 139.138 413.251 137.108 414.762 135.617C416.273 134.125 418.315 133.294 420.438 133.306H581.668C583.791 133.294 585.833 134.125 587.344 135.617C588.855 137.108 589.713 139.138 589.729 141.261V501.087C589.713 503.21 588.855 505.24 587.344 506.731C585.833 508.223 583.791 509.054 581.668 509.042V509.042Z" fill="white"/>
<path d="M589.729 249.734H412.376V252.214H589.729V249.734Z" fill="#CCCCCC"/>
<path d="M590.349 391.237H412.997V393.717H590.349V391.237Z" fill="#CCCCCC"/>
<path d="M470.667 133.306H468.187V510.282H470.667V133.306Z" fill="#CCCCCC"/>
<path d="M532.679 133.306H530.198V510.282H532.679V133.306Z" fill="#CCCCCC"/>
</g>
<defs>
<clipPath id="clip0_119_496">
<rect width="1079" height="645" fill="white"/>
</clipPath>
</defs>
</svg>
