<svg width="145" height="64" viewBox="0 0 145 64" fill="none" xmlns="http://www.w3.org/2000/svg">
<g filter="url(#filter0_d_51_79)">
<path d="M83.488 28.152V25.752H91.248V25.336C91.248 24.5893 91.1413 23.9067 90.928 23.288C90.7253 22.6587 90.3893 22.1573 89.92 21.784C89.4613 21.4107 88.848 21.224 88.08 21.224C86.992 21.224 86.176 21.6827 85.632 22.6C85.088 23.5173 84.816 24.7813 84.816 26.392V27.4C84.816 28.4027 84.9173 29.3093 85.12 30.12C85.3333 30.92 85.7067 31.5547 86.24 32.024C86.7733 32.4827 87.5307 32.712 88.512 32.712C89.312 32.712 90.0853 32.6 90.832 32.376C91.5787 32.1413 92.288 31.848 92.96 31.496C93.2373 31.7627 93.4667 32.0987 93.648 32.504C93.84 32.8987 93.9573 33.2667 94 33.608C93.2427 34.1627 92.3307 34.6053 91.264 34.936C90.208 35.256 89.12 35.416 88 35.416C86.7307 35.416 85.6693 35.192 84.816 34.744C83.9733 34.296 83.3013 33.6827 82.8 32.904C82.3093 32.1147 81.952 31.224 81.728 30.232C81.5147 29.24 81.408 28.2053 81.408 27.128C81.408 25.5387 81.6533 24.1147 82.144 22.856C82.6453 21.5973 83.392 20.6053 84.384 19.88C85.376 19.1547 86.608 18.792 88.08 18.792C89.4667 18.792 90.6293 19.096 91.568 19.704C92.5173 20.312 93.232 21.1333 93.712 22.168C94.192 23.192 94.432 24.3387 94.432 25.608C94.432 26.12 94.4107 26.5627 94.368 26.936C94.336 27.2987 94.2773 27.704 94.192 28.152H83.488ZM105.993 34.488C105.524 36.12 105.006 37.4907 104.441 38.6C103.886 39.7093 103.172 40.552 102.297 41.128C101.422 41.704 100.276 41.992 98.857 41.992C98.3557 41.992 97.801 41.9333 97.193 41.816C96.5957 41.7093 96.1317 41.5973 95.801 41.48C95.769 41.0853 95.8223 40.6533 95.961 40.184C96.1103 39.7253 96.2917 39.368 96.505 39.112C96.761 39.1973 97.113 39.2827 97.561 39.368C98.0197 39.4533 98.4623 39.496 98.889 39.496C99.6037 39.496 100.196 39.336 100.665 39.016C101.145 38.696 101.545 38.2373 101.865 37.64C102.196 37.0427 102.478 36.344 102.713 35.544L102.825 35.16C102.164 35.1387 101.636 35.0107 101.241 34.776C100.846 34.5307 100.548 34.088 100.345 33.448L96.153 19.464C96.5263 19.2827 96.8837 19.1547 97.225 19.08C97.577 19.0053 97.8863 18.968 98.153 18.968C98.5477 18.968 98.8837 19.0693 99.161 19.272C99.449 19.464 99.6677 19.8533 99.817 20.44L101.977 27.8C102.137 28.2907 102.286 28.824 102.425 29.4C102.574 29.976 102.713 30.536 102.841 31.08C102.98 31.6133 103.092 32.088 103.177 32.504C103.22 32.6533 103.321 32.728 103.481 32.728L106.985 19.192C107.188 19.1493 107.417 19.1173 107.673 19.096C107.929 19.0747 108.174 19.064 108.409 19.064C108.697 19.064 108.985 19.08 109.273 19.112C109.561 19.144 109.838 19.2027 110.105 19.288L110.217 19.48L105.993 34.488ZM113.707 28.152V25.752H121.467V25.336C121.467 24.5893 121.36 23.9067 121.147 23.288C120.944 22.6587 120.608 22.1573 120.139 21.784C119.68 21.4107 119.067 21.224 118.299 21.224C117.211 21.224 116.395 21.6827 115.851 22.6C115.307 23.5173 115.035 24.7813 115.035 26.392V27.4C115.035 28.4027 115.136 29.3093 115.339 30.12C115.552 30.92 115.925 31.5547 116.459 32.024C116.992 32.4827 117.749 32.712 118.731 32.712C119.531 32.712 120.304 32.6 121.051 32.376C121.797 32.1413 122.507 31.848 123.179 31.496C123.456 31.7627 123.685 32.0987 123.867 32.504C124.059 32.8987 124.176 33.2667 124.219 33.608C123.461 34.1627 122.549 34.6053 121.483 34.936C120.427 35.256 119.339 35.416 118.219 35.416C116.949 35.416 115.888 35.192 115.035 34.744C114.192 34.296 113.52 33.6827 113.019 32.904C112.528 32.1147 112.171 31.224 111.947 30.232C111.733 29.24 111.627 28.2053 111.627 27.128C111.627 25.5387 111.872 24.1147 112.363 22.856C112.864 21.5973 113.611 20.6053 114.603 19.88C115.595 19.1547 116.827 18.792 118.299 18.792C119.685 18.792 120.848 19.096 121.787 19.704C122.736 20.312 123.451 21.1333 123.931 22.168C124.411 23.192 124.651 24.3387 124.651 25.608C124.651 26.12 124.629 26.5627 124.587 26.936C124.555 27.2987 124.496 27.704 124.411 28.152H113.707Z" fill="white"/>
</g>
<path d="M51.24 35C51.016 35.0427 50.76 35.0747 50.472 35.096C50.184 35.1174 49.8907 35.128 49.592 35.128C49.2933 35.128 49 35.1174 48.712 35.096C48.424 35.0747 48.1627 35.0427 47.928 35V23.272C47.928 22.7067 47.8267 22.2907 47.624 22.024C47.432 21.7467 47.0693 21.608 46.536 21.608H46.184C46.088 21.224 46.04 20.8347 46.04 20.44C46.04 20.248 46.0507 20.056 46.072 19.864C46.0933 19.6614 46.1307 19.4534 46.184 19.24C46.5893 19.1867 46.968 19.1494 47.32 19.128C47.6827 19.1067 47.9813 19.096 48.216 19.096H48.648C49.448 19.096 50.0773 19.352 50.536 19.864C51.0053 20.3654 51.24 21.0534 51.24 21.928V35ZM46.952 14.936C46.952 14.7014 46.9733 14.4507 47.016 14.184C47.0693 13.9174 47.144 13.688 47.24 13.496C47.432 13.3894 47.6933 13.2987 48.024 13.224C48.3653 13.1494 48.6907 13.112 49 13.112C49.2987 13.112 49.624 13.1494 49.976 13.224C50.328 13.2987 50.5893 13.3894 50.76 13.496C50.856 13.688 50.9253 13.9227 50.968 14.2C51.0213 14.4667 51.048 14.712 51.048 14.936C51.048 15.16 51.0213 15.4054 50.968 15.672C50.9253 15.9387 50.856 16.168 50.76 16.36C50.6107 16.4667 50.3547 16.5627 49.992 16.648C49.6293 16.7227 49.2987 16.76 49 16.76C48.6907 16.76 48.3653 16.7227 48.024 16.648C47.6827 16.5734 47.4213 16.4774 47.24 16.36C47.144 16.168 47.0693 15.9387 47.016 15.672C46.9733 15.4054 46.952 15.16 46.952 14.936ZM59.9275 35C59.7035 35.0427 59.4475 35.0747 59.1595 35.096C58.8715 35.1174 58.5782 35.128 58.2795 35.128C57.9808 35.128 57.6875 35.1174 57.3995 35.096C57.1115 35.0747 56.8502 35.0427 56.6155 35V23.272C56.6155 22.7067 56.5142 22.2907 56.3115 22.024C56.1195 21.7467 55.7568 21.608 55.2235 21.608H54.8715C54.7755 21.224 54.7275 20.8347 54.7275 20.44C54.7275 20.248 54.7382 20.056 54.7595 19.864C54.7808 19.6614 54.8182 19.4534 54.8715 19.24C55.2768 19.1867 55.6555 19.1494 56.0075 19.128C56.3702 19.1067 56.6688 19.096 56.9035 19.096H57.3355C58.1355 19.096 58.7648 19.352 59.2235 19.864C59.6928 20.3654 59.9275 21.0534 59.9275 21.928V35ZM55.6395 14.936C55.6395 14.7014 55.6608 14.4507 55.7035 14.184C55.7568 13.9174 55.8315 13.688 55.9275 13.496C56.1195 13.3894 56.3808 13.2987 56.7115 13.224C57.0528 13.1494 57.3782 13.112 57.6875 13.112C57.9862 13.112 58.3115 13.1494 58.6635 13.224C59.0155 13.2987 59.2768 13.3894 59.4475 13.496C59.5435 13.688 59.6128 13.9227 59.6555 14.2C59.7088 14.4667 59.7355 14.712 59.7355 14.936C59.7355 15.16 59.7088 15.4054 59.6555 15.672C59.6128 15.9387 59.5435 16.168 59.4475 16.36C59.2982 16.4667 59.0422 16.5627 58.6795 16.648C58.3168 16.7227 57.9862 16.76 57.6875 16.76C57.3782 16.76 57.0528 16.7227 56.7115 16.648C56.3702 16.5734 56.1088 16.4774 55.9275 16.36C55.8315 16.168 55.7568 15.9387 55.7035 15.672C55.6608 15.4054 55.6395 15.16 55.6395 14.936ZM65.3068 16.408C65.3068 15.672 65.4294 15.1387 65.6748 14.808C65.9201 14.4667 66.3894 14.296 67.0828 14.296H68.3308L68.5388 14.52V31.128C68.5388 31.5547 68.6401 31.896 68.8428 32.152C69.0454 32.3974 69.3868 32.52 69.8668 32.52H72.0748C72.2454 33.0214 72.3308 33.576 72.3308 34.184C72.3308 34.3014 72.3254 34.424 72.3148 34.552C72.3148 34.68 72.2988 34.7974 72.2668 34.904C71.7334 34.968 71.1628 35.0214 70.5548 35.064C69.9468 35.1174 69.3281 35.144 68.6988 35.144C67.6108 35.144 66.7734 34.872 66.1868 34.328C65.6001 33.7734 65.3068 32.9467 65.3068 31.848V16.408ZM72.4908 19.176C72.5974 19.5707 72.6508 19.9707 72.6508 20.376C72.6508 20.824 72.5974 21.2347 72.4908 21.608L67.2588 21.544L62.9548 21.608C62.8694 21.2134 62.8268 20.8027 62.8268 20.376C62.8268 19.992 62.8694 19.592 62.9548 19.176L67.3068 19.24L72.4908 19.176ZM75.3895 33.256C75.3895 33.064 75.4162 32.7974 75.4695 32.456C75.5228 32.1147 75.5975 31.848 75.6935 31.656C75.9068 31.5387 76.2002 31.4427 76.5735 31.368C76.9468 31.2827 77.3042 31.24 77.6455 31.24C77.9655 31.24 78.3175 31.2827 78.7015 31.368C79.0962 31.4427 79.3948 31.5387 79.5975 31.656C79.7042 31.848 79.7842 32.1147 79.8375 32.456C79.8908 32.7974 79.9175 33.064 79.9175 33.256C79.9175 33.448 79.8908 33.7147 79.8375 34.056C79.7842 34.3867 79.7042 34.648 79.5975 34.84C79.4162 34.968 79.1228 35.0694 78.7175 35.144C78.3228 35.2187 77.9655 35.256 77.6455 35.256C77.3042 35.256 76.9468 35.2187 76.5735 35.144C76.2002 35.0694 75.9068 34.968 75.6935 34.84C75.5975 34.648 75.5228 34.3867 75.4695 34.056C75.4162 33.7147 75.3895 33.448 75.3895 33.256Z" fill="#007F5E"/>
<path d="M20 40.6667C29.2048 40.6667 36.6667 33.2048 36.6667 24C36.6667 14.7953 29.2048 7.33334 20 7.33334C10.7953 7.33334 3.33337 14.7953 3.33337 24C3.33337 33.2048 10.7953 40.6667 20 40.6667Z" stroke="#007F5E" stroke-width="3.33333" stroke-linecap="round" stroke-linejoin="round"/>
<path d="M25 19H15V29H25V19Z" stroke="#007F5E" stroke-width="3.33333" stroke-linecap="round" stroke-linejoin="round"/>
<defs>
<filter id="filter0_d_51_79" x="61.408" y="0.791992" width="83.2428" height="63.2" filterUnits="userSpaceOnUse" color-interpolation-filters="sRGB">
<feFlood flood-opacity="0" result="BackgroundImageFix"/>
<feColorMatrix in="SourceAlpha" type="matrix" values="0 0 0 0 0 0 0 0 0 0 0 0 0 0 0 0 0 0 127 0" result="hardAlpha"/>
<feOffset dy="2"/>
<feGaussianBlur stdDeviation="10"/>
<feComposite in2="hardAlpha" operator="out"/>
<feColorMatrix type="matrix" values="0 0 0 0 0 0 0 0 0 0.498039 0 0 0 0 0.368627 0 0 0 1 0"/>
<feBlend mode="normal" in2="BackgroundImageFix" result="effect1_dropShadow_51_79"/>
<feBlend mode="normal" in="SourceGraphic" in2="effect1_dropShadow_51_79" result="shape"/>
</filter>
</defs>
</svg>
