<svg width="1440" height="1175" viewBox="0 0 1440 1175" fill="none" xmlns="http://www.w3.org/2000/svg">
<rect x="-108.914" y="-52" width="1633.97" height="1226.31" fill="white"/>
<g filter="url(#filter0_f_70_288)">
<path d="M1546 745.447C1546 816.65 1466.77 842.367 1391.76 874.371C1172.14 968.074 1167.95 952.124 1237.52 745.447C1260.68 676.652 1306.58 616.522 1391.76 616.522C1476.94 616.522 1546 674.244 1546 745.447Z" fill="url(#paint0_linear_70_288)"/>
</g>
<g filter="url(#filter1_f_70_288)">
<rect x="-108.914" y="-52" width="1633.97" height="573.166" fill="#007F5E"/>
<path d="M1523.92 526.527V696.499C1522 695.978 1520.11 695.457 1518.19 694.937C1517.02 694.618 1515.84 694.299 1514.66 693.981C1436.81 673.052 1341.43 657.384 1236.43 648.274C1131.42 639.164 1019.81 636.875 910.832 641.596C832.014 644.999 757.952 650.21 713.662 658.191C380.57 718.209 2.63449 661.014 -103.184 645.022C-105.104 644.738 -107.023 644.447 -108.914 644.149V526.527C-108.914 525.105 -106.801 523.741 -103.04 522.736C-99.2799 521.731 -94.1796 521.166 -88.8614 521.166H1503.87C1509.18 521.166 1514.28 521.731 1518.04 522.736C1521.81 523.741 1523.92 525.105 1523.92 526.527V526.527Z" fill="#007F5E"/>
<path d="M200.7 592.15C201.637 592.15 202.396 591.465 202.396 590.621C202.396 589.776 201.637 589.091 200.7 589.091C199.764 589.091 199.005 589.776 199.005 590.621C199.005 591.465 199.764 592.15 200.7 592.15Z" fill="#007F5E"/>
<path d="M114.252 621.976C115.188 621.976 115.947 621.291 115.947 620.446C115.947 619.601 115.188 618.917 114.252 618.917C113.315 618.917 112.557 619.601 112.557 620.446C112.557 621.291 113.315 621.976 114.252 621.976Z" fill="#007F5E"/>
<path d="M18.4797 582.973C19.4159 582.973 20.1748 582.288 20.1748 581.444C20.1748 580.599 19.4159 579.914 18.4797 579.914C17.5436 579.914 16.7847 580.599 16.7847 581.444C16.7847 582.288 17.5436 582.973 18.4797 582.973Z" fill="#FF6584"/>
<path d="M59.1616 544.735C60.0978 544.735 60.8567 544.051 60.8567 543.206C60.8567 542.361 60.0978 541.676 59.1616 541.676C58.2255 541.676 57.4666 542.361 57.4666 543.206C57.4666 544.051 58.2255 544.735 59.1616 544.735Z" fill="white"/>
<path d="M342.239 536.323C343.176 536.323 343.935 535.638 343.935 534.794C343.935 533.949 343.176 533.264 342.239 533.264C341.303 533.264 340.544 533.949 340.544 534.794C340.544 535.638 341.303 536.323 342.239 536.323Z" fill="white"/>
<path d="M254.943 562.325C255.879 562.325 256.638 561.64 256.638 560.795C256.638 559.951 255.879 559.266 254.943 559.266C254.007 559.266 253.248 559.951 253.248 560.795C253.248 561.64 254.007 562.325 254.943 562.325Z" fill="white"/>
<path d="M354.953 587.562C355.889 587.562 356.648 586.877 356.648 586.032C356.648 585.187 355.889 584.503 354.953 584.503C354.016 584.503 353.257 585.187 353.257 586.032C353.257 586.877 354.016 587.562 354.953 587.562Z" fill="white"/>
<path d="M57.4665 612.799C58.4027 612.799 59.1616 612.114 59.1616 611.269C59.1616 610.424 58.4027 609.74 57.4665 609.74C56.5303 609.74 55.7714 610.424 55.7714 611.269C55.7714 612.114 56.5303 612.799 57.4665 612.799Z" fill="white"/>
<path d="M195.648 543.272L194.05 543.398L193.689 544.809L193.062 543.476L191.463 543.602L192.674 542.652L192.047 541.319L193.423 542.065L194.634 541.115L194.273 542.526L195.648 543.272Z" fill="white"/>
<path d="M292.268 605.217L290.669 605.343L290.308 606.754L289.681 605.421L288.083 605.547L289.294 604.597L288.667 603.264L290.042 604.01L291.253 603.06L290.892 604.471L292.268 605.217Z" fill="white"/>
<path d="M112.59 587.628L110.991 587.754L110.63 589.165L110.003 587.832L108.405 587.958L109.616 587.008L108.989 585.675L110.364 586.421L111.575 585.471L111.214 586.882L112.59 587.628Z" fill="white"/>
<path d="M37.1588 655.691L35.5603 655.817L35.1993 657.228L34.5721 655.895L32.9736 656.021L34.1848 655.071L33.5576 653.738L34.9331 654.484L36.1443 653.534L35.7832 654.945L37.1588 655.691Z" fill="white"/>
<path d="M356.681 654.162L355.082 654.287L354.721 655.698L354.094 654.365L352.496 654.491L353.707 653.542L353.08 652.209L354.455 652.954L355.666 652.004L355.305 653.415L356.681 654.162Z" fill="white"/>
<path d="M522.291 623.868L520.693 623.994L520.332 625.405L519.705 624.072L518.106 624.198L519.317 623.248L518.69 621.915L520.066 622.661L521.277 621.711L520.916 623.122L522.291 623.868Z" fill="white"/>
<path d="M726.548 542.805L724.95 542.93L724.589 544.341L723.962 543.008L722.363 543.134L723.574 542.184L722.947 540.851L724.323 541.597L725.534 540.647L725.173 542.058L726.548 542.805Z" fill="white"/>
<path d="M823.168 604.75L821.569 604.875L821.208 606.286L820.581 604.953L818.982 605.079L820.194 604.129L819.566 602.796L820.942 603.542L822.153 602.592L821.792 604.003L823.168 604.75Z" fill="white"/>
<path d="M643.49 587.16L641.891 587.286L641.53 588.697L640.903 587.364L639.304 587.49L640.516 586.54L639.888 585.207L641.264 585.953L642.475 585.003L642.114 586.414L643.49 587.16Z" fill="white"/>
<path d="M568.059 655.223L566.46 655.349L566.099 656.76L565.472 655.427L563.873 655.553L565.085 654.603L564.457 653.27L565.833 654.016L567.044 653.066L566.683 654.477L568.059 655.223Z" fill="white"/>
<path d="M887.581 653.694L885.982 653.819L885.621 655.23L884.994 653.897L883.395 654.023L884.607 653.074L883.979 651.741L885.355 652.486L886.566 651.536L886.205 652.947L887.581 653.694Z" fill="white"/>
<path d="M477.372 564.982L475.774 565.108L475.412 566.519L474.785 565.186L473.187 565.312L474.398 564.362L473.771 563.029L475.146 563.775L476.357 562.825L475.996 564.236L477.372 564.982Z" fill="white"/>
<path d="M1444.05 569.43C1448.73 569.43 1452.52 566.006 1452.52 561.783C1452.52 557.559 1448.73 554.135 1444.05 554.135C1439.37 554.135 1435.57 557.559 1435.57 561.783C1435.57 566.006 1439.37 569.43 1444.05 569.43Z" fill="#007F5E"/>
<path d="M1335.56 595.432C1336.5 595.432 1337.26 594.747 1337.26 593.902C1337.26 593.058 1336.5 592.373 1335.56 592.373C1334.63 592.373 1333.87 593.058 1333.87 593.902C1333.87 594.747 1334.63 595.432 1335.56 595.432Z" fill="#007F5E"/>
<path d="M1249.11 625.257C1250.05 625.257 1250.81 624.572 1250.81 623.728C1250.81 622.883 1250.05 622.198 1249.11 622.198C1248.18 622.198 1247.42 622.883 1247.42 623.728C1247.42 624.572 1248.18 625.257 1249.11 625.257Z" fill="#007F5E"/>
<path d="M1153.34 586.255C1154.28 586.255 1155.04 585.57 1155.04 584.725C1155.04 583.881 1154.28 583.196 1153.34 583.196C1152.41 583.196 1151.65 583.881 1151.65 584.725C1151.65 585.57 1152.41 586.255 1153.34 586.255Z" fill="#FF6584"/>
<path d="M1194.02 548.017C1194.96 548.017 1195.72 547.332 1195.72 546.488C1195.72 545.643 1194.96 544.958 1194.02 544.958C1193.09 544.958 1192.33 545.643 1192.33 546.488C1192.33 547.332 1193.09 548.017 1194.02 548.017Z" fill="white"/>
<path d="M1389.81 565.606C1390.74 565.606 1391.5 564.922 1391.5 564.077C1391.5 563.232 1390.74 562.547 1389.81 562.547C1388.87 562.547 1388.11 563.232 1388.11 564.077C1388.11 564.922 1388.87 565.606 1389.81 565.606Z" fill="white"/>
<path d="M1192.33 616.08C1193.27 616.08 1194.02 615.395 1194.02 614.551C1194.02 613.706 1193.27 613.021 1192.33 613.021C1191.39 613.021 1190.63 613.706 1190.63 614.551C1190.63 615.395 1191.39 616.08 1192.33 616.08Z" fill="white"/>
<path d="M1062.66 611.492C1063.59 611.492 1064.35 610.807 1064.35 609.962C1064.35 609.117 1063.59 608.433 1062.66 608.433C1061.72 608.433 1060.96 609.117 1060.96 609.962C1060.96 610.807 1061.72 611.492 1062.66 611.492Z" fill="#FF6584"/>
<path d="M1126.25 627.618L1124.66 627.743L1124.3 629.154L1123.67 627.821L1122.07 627.948L1123.28 626.998L1122.65 625.665L1124.03 626.411L1125.24 625.461L1124.88 626.872L1126.25 627.618Z" fill="white"/>
<path d="M1330.51 546.554L1328.91 546.68L1328.55 548.091L1327.92 546.758L1326.33 546.884L1327.54 545.934L1326.91 544.601L1328.29 545.347L1329.5 544.397L1329.14 545.808L1330.51 546.554Z" fill="white"/>
<path d="M1427.13 608.499L1425.53 608.625L1425.17 610.036L1424.54 608.703L1422.95 608.829L1424.16 607.879L1423.53 606.546L1424.9 607.292L1426.12 606.342L1425.76 607.753L1427.13 608.499Z" fill="white"/>
<path d="M1247.45 590.91L1245.85 591.035L1245.49 592.446L1244.87 591.113L1243.27 591.239L1244.48 590.29L1243.85 588.957L1245.23 589.702L1246.44 588.753L1246.08 590.163L1247.45 590.91Z" fill="white"/>
<path d="M1172.02 658.973L1170.42 659.098L1170.06 660.509L1169.43 659.176L1167.84 659.303L1169.05 658.353L1168.42 657.02L1169.8 657.765L1171.01 656.816L1170.65 658.227L1172.02 658.973Z" fill="white"/>
<path d="M1081.34 568.732L1079.74 568.857L1079.38 570.268L1078.75 568.935L1077.15 569.062L1078.36 568.112L1077.73 566.779L1079.11 567.524L1080.32 566.575L1079.96 567.986L1081.34 568.732Z" fill="white"/>
<path d="M1139.75 565.141L1138.15 565.266L1137.79 566.677L1137.16 565.344L1135.56 565.471L1136.77 564.521L1136.15 563.188L1137.52 563.933L1138.73 562.984L1138.37 564.395L1139.75 565.141Z" fill="white"/>
<path d="M960.07 547.552L958.472 547.677L958.111 549.088L957.484 547.755L955.885 547.881L957.096 546.931L956.469 545.598L957.845 546.344L959.056 545.394L958.695 546.805L960.07 547.552Z" fill="white"/>
<path d="M884.64 615.615L883.041 615.74L882.68 617.151L882.053 615.818L880.454 615.944L881.666 614.994L881.038 613.662L882.414 614.407L883.625 613.457L883.264 614.868L884.64 615.615Z" fill="white"/>
<path d="M1204.16 614.085L1202.56 614.211L1202.2 615.622L1201.57 614.289L1199.98 614.415L1201.19 613.465L1200.56 612.132L1201.94 612.878L1203.15 611.928L1202.79 613.339L1204.16 614.085Z" fill="white"/>
<path d="M793.953 525.374L792.355 525.499L791.993 526.91L791.366 525.577L789.768 525.703L790.979 524.754L790.352 523.421L791.727 524.166L792.938 523.216L792.577 524.627L793.953 525.374Z" fill="white"/>
</g>
<defs>
<filter id="filter0_f_70_288" x="1147.65" y="566.522" width="448.353" height="412.729" filterUnits="userSpaceOnUse" color-interpolation-filters="sRGB">
<feFlood flood-opacity="0" result="BackgroundImageFix"/>
<feBlend mode="normal" in="SourceGraphic" in2="BackgroundImageFix" result="shape"/>
<feGaussianBlur stdDeviation="25" result="effect1_foregroundBlur_70_288"/>
</filter>
<filter id="filter1_f_70_288" x="-138.914" y="-82" width="1693.97" height="808.499" filterUnits="userSpaceOnUse" color-interpolation-filters="sRGB">
<feFlood flood-opacity="0" result="BackgroundImageFix"/>
<feBlend mode="normal" in="SourceGraphic" in2="BackgroundImageFix" result="shape"/>
<feGaussianBlur stdDeviation="15" result="effect1_foregroundBlur_70_288"/>
</filter>
<linearGradient id="paint0_linear_70_288" x1="1242.55" y1="680.32" x2="1259.45" y2="930.2" gradientUnits="userSpaceOnUse">
<stop offset="0.330401" stop-color="#007F5E"/>
<stop offset="1" stop-color="#FFF500" stop-opacity="0.3"/>
</linearGradient>
</defs>
</svg>
