<svg width="156" height="39" viewBox="0 0 156 39" fill="none" xmlns="http://www.w3.org/2000/svg">
<rect x="0.5" y="0.5" width="155" height="38" rx="19" fill="white" stroke="#007F5E"/>
<path d="M62.29 19.17C62.29 19.95 62.2367 20.7 62.13 21.42C62.0233 22.1333 61.8133 22.8033 61.5 23.43C61.1933 24.05 60.7267 24.6067 60.1 25.1C59.8 25.34 59.44 25.5333 59.02 25.68C58.6 25.8267 58.17 25.9333 57.73 26C57.29 26.0733 56.8867 26.11 56.52 26.11C55.9667 26.11 55.44 26.1067 54.94 26.1C54.44 26.0933 53.9367 26.0833 53.43 26.07C52.9233 26.0567 52.38 26.0433 51.8 26.03L51.66 25.89V12.45L51.8 12.31C52.3733 12.29 52.9133 12.2767 53.42 12.27C53.9267 12.2567 54.43 12.25 54.93 12.25C55.4367 12.2433 55.9667 12.24 56.52 12.24C56.8867 12.24 57.29 12.2733 57.73 12.34C58.1767 12.4067 58.61 12.5167 59.03 12.67C59.45 12.8167 59.8067 13.01 60.1 13.25C60.72 13.7433 61.1833 14.3033 61.49 14.93C61.8033 15.55 62.0133 16.22 62.12 16.94C62.2333 17.6533 62.29 18.3967 62.29 19.17ZM59.52 19.17C59.52 18.6167 59.4833 18.0567 59.41 17.49C59.3367 16.9233 59.1967 16.4067 58.99 15.94C58.79 15.4667 58.49 15.0867 58.09 14.8C57.6967 14.5067 57.1733 14.36 56.52 14.36C56.14 14.36 55.78 14.3567 55.44 14.35C55.1067 14.3433 54.74 14.34 54.34 14.34V23.99C54.74 23.9833 55.1067 23.9833 55.44 23.99C55.78 23.99 56.14 23.99 56.52 23.99C57.1733 23.99 57.6967 23.8467 58.09 23.56C58.49 23.2667 58.79 22.8833 58.99 22.41C59.1967 21.93 59.3367 21.4067 59.41 20.84C59.4833 20.2733 59.52 19.7167 59.52 19.17ZM65.5641 21.87V20.04H69.8541V19.79C69.8541 19.41 69.7974 19.06 69.6841 18.74C69.5774 18.42 69.4041 18.1633 69.1641 17.97C68.9307 17.7767 68.6141 17.68 68.2141 17.68C67.6341 17.68 67.2107 17.9233 66.9441 18.41C66.6841 18.89 66.5541 19.5867 66.5541 20.5V21.29C66.5541 21.83 66.6041 22.3233 66.7041 22.77C66.8107 23.2167 67.0107 23.5733 67.3041 23.84C67.6041 24.1 68.0374 24.23 68.6041 24.23C69.0841 24.23 69.5474 24.1667 69.9941 24.04C70.4474 23.9067 70.8807 23.7433 71.2941 23.55C71.4941 23.75 71.6574 24 71.7841 24.3C71.9174 24.6 72.0041 24.8833 72.0441 25.15C71.5507 25.5033 70.9607 25.78 70.2741 25.98C69.5941 26.18 68.9007 26.28 68.1941 26.28C67.3541 26.28 66.6574 26.1367 66.1041 25.85C65.5507 25.5633 65.1107 25.1767 64.7841 24.69C64.4641 24.1967 64.2374 23.64 64.1041 23.02C63.9707 22.3933 63.9041 21.7467 63.9041 21.08C63.9041 20.08 64.0574 19.18 64.3641 18.38C64.6707 17.58 65.1441 16.95 65.7841 16.49C66.4241 16.0233 67.2407 15.79 68.2341 15.79C69.1074 15.79 69.8441 15.98 70.4441 16.36C71.0507 16.7333 71.5107 17.24 71.8241 17.88C72.1441 18.52 72.3041 19.24 72.3041 20.04C72.3041 20.4267 72.2874 20.7533 72.2541 21.02C72.2207 21.28 72.1674 21.5633 72.0941 21.87H65.5641ZM74.895 14.64C74.895 14.06 74.9983 13.6467 75.205 13.4C75.4117 13.1533 75.7783 13.03 76.305 13.03H77.305L77.445 13.17V23.17C77.445 23.45 77.5083 23.67 77.635 23.83C77.7683 23.99 77.9917 24.07 78.305 24.07H79.545C79.685 24.4767 79.755 24.9 79.755 25.34C79.755 25.4333 79.7517 25.5333 79.745 25.64C79.7383 25.74 79.7217 25.8333 79.695 25.92C79.3417 25.9667 78.9483 26.0067 78.515 26.04C78.0883 26.0733 77.675 26.09 77.275 26.09C76.4817 26.09 75.885 25.8933 75.485 25.5C75.0917 25.1 74.895 24.4867 74.895 23.66V14.64ZM79.865 16.05C79.945 16.3567 79.985 16.6667 79.985 16.98C79.985 17.3267 79.945 17.6467 79.865 17.94L76.355 17.88L73.365 17.94C73.2983 17.6333 73.265 17.3133 73.265 16.98C73.265 16.68 73.2983 16.37 73.365 16.05L76.415 16.1L79.865 16.05ZM81.1206 23.29C81.1206 22.5033 81.2973 21.86 81.6506 21.36C82.0106 20.86 82.484 20.49 83.0706 20.25C83.664 20.01 84.314 19.89 85.0206 19.89C85.354 19.89 85.7506 19.9033 86.2106 19.93C86.6773 19.95 87.104 20.0033 87.4906 20.09V21.78C87.1706 21.7067 86.7973 21.6633 86.3706 21.65C85.9506 21.63 85.5773 21.62 85.2506 21.62C84.724 21.62 84.3306 21.7567 84.0706 22.03C83.8106 22.2967 83.6806 22.6567 83.6806 23.11C83.6806 23.45 83.7806 23.7333 83.9806 23.96C84.1806 24.1867 84.4573 24.3 84.8106 24.3C85.2506 24.3 85.7073 24.1433 86.1806 23.83C86.6606 23.5167 87.064 23.0733 87.3906 22.5L87.7706 24.28C87.5173 24.5733 87.2206 24.8767 86.8806 25.19C86.5406 25.4967 86.1406 25.7567 85.6806 25.97C85.2273 26.1767 84.704 26.28 84.1106 26.28C83.4373 26.28 82.8773 26.13 82.4306 25.83C81.9906 25.53 81.6606 25.15 81.4406 24.69C81.2273 24.23 81.1206 23.7633 81.1206 23.29ZM89.8406 24.81C89.7873 25.0433 89.674 25.2933 89.5006 25.56C89.334 25.8267 89.1606 26.0233 88.9806 26.15C88.474 26.1033 88.0573 25.96 87.7306 25.72C87.404 25.48 87.1573 25.19 86.9906 24.85C86.8306 24.5033 86.7273 24.1533 86.6806 23.8V19.41C86.6806 18.89 86.5573 18.51 86.3106 18.27C86.064 18.0233 85.7006 17.9 85.2206 17.9C84.754 17.9 84.2606 17.9733 83.7406 18.12C83.2206 18.26 82.6973 18.42 82.1706 18.6C81.9773 18.3867 81.8206 18.1067 81.7006 17.76C81.5873 17.4133 81.5173 17.0733 81.4906 16.74C81.904 16.5667 82.364 16.4133 82.8706 16.28C83.384 16.1467 83.9006 16.0433 84.4206 15.97C84.9473 15.89 85.4306 15.85 85.8706 15.85C86.4906 15.85 87.0573 15.9633 87.5706 16.19C88.084 16.4167 88.4973 16.78 88.8106 17.28C89.124 17.7733 89.2806 18.4233 89.2806 19.23V23.31C89.2806 23.6367 89.3206 23.9267 89.4006 24.18C89.4806 24.4333 89.6273 24.6433 89.8406 24.81ZM95.0241 26C94.8441 26.0333 94.6374 26.0567 94.4041 26.07C94.1774 26.09 93.9507 26.1 93.7241 26.1C93.4974 26.1 93.2674 26.09 93.0341 26.07C92.8074 26.0567 92.5974 26.0333 92.4041 26V19.04C92.4041 18.6933 92.3374 18.4233 92.2041 18.23C92.0774 18.0367 91.8441 17.94 91.5041 17.94H91.2341C91.1607 17.6467 91.1241 17.3467 91.1241 17.04C91.1241 16.8867 91.1307 16.73 91.1441 16.57C91.1641 16.41 91.1941 16.25 91.2341 16.09C91.5141 16.0567 91.7907 16.0333 92.0641 16.02C92.3441 16.0067 92.5774 16 92.7641 16H93.1141C93.7074 16 94.1741 16.1867 94.5141 16.56C94.8541 16.9333 95.0241 17.4433 95.0241 18.09V26ZM91.8041 13.33C91.8041 13.1633 91.8207 12.9867 91.8541 12.8C91.8941 12.6133 91.9474 12.4433 92.0141 12.29C92.1607 12.21 92.3541 12.1467 92.5941 12.1C92.8407 12.0467 93.0807 12.02 93.3141 12.02C93.5474 12.02 93.7907 12.0467 94.0441 12.1C94.2974 12.1467 94.4874 12.21 94.6141 12.29C94.6807 12.4433 94.7307 12.6167 94.7641 12.81C94.8041 12.9967 94.8241 13.17 94.8241 13.33C94.8241 13.49 94.8041 13.6633 94.7641 13.85C94.7307 14.0367 94.6807 14.2067 94.6141 14.36C94.4874 14.44 94.2974 14.5067 94.0441 14.56C93.7907 14.6133 93.5474 14.64 93.3141 14.64C93.0807 14.64 92.8374 14.6167 92.5841 14.57C92.3374 14.5167 92.1474 14.4467 92.0141 14.36C91.9474 14.2067 91.8941 14.0367 91.8541 13.85C91.8207 13.6633 91.8041 13.49 91.8041 13.33ZM101.737 24.07C101.797 24.2567 101.847 24.46 101.887 24.68C101.927 24.9 101.947 25.12 101.947 25.34C101.947 25.4333 101.944 25.5333 101.937 25.64C101.931 25.74 101.914 25.8333 101.887 25.92C101.621 25.96 101.314 25.9967 100.967 26.03C100.621 26.07 100.281 26.09 99.9472 26.09C99.1672 26.09 98.5972 25.8933 98.2372 25.5C97.8839 25.1 97.7072 24.4867 97.7072 23.66V11.42L97.8472 11.29H98.8572C99.3839 11.29 99.7505 11.4133 99.9572 11.66C100.164 11.9 100.267 12.3133 100.267 12.9V23.15C100.267 23.7633 100.544 24.07 101.097 24.07H101.737Z" fill="#007F5E"/>
</svg>
