<svg width="156" height="39" viewBox="0 0 156 39" fill="none" xmlns="http://www.w3.org/2000/svg">
<rect x="0.5" y="0.5" width="155" height="38" rx="19" fill="white" stroke="#007F5E"/>
<path d="M52.2197 12.35C52.5064 12.3033 52.823 12.2733 53.1697 12.26C53.5164 12.24 53.803 12.23 54.0297 12.23C54.263 12.23 54.533 12.24 54.8397 12.26C55.1464 12.2733 55.443 12.3033 55.7297 12.35L57.2597 17.9C57.2997 18.04 57.353 18.2567 57.4197 18.55C57.493 18.8433 57.5697 19.1667 57.6497 19.52C57.7297 19.8733 57.803 20.2133 57.8697 20.54C57.943 20.8667 57.993 21.1267 58.0197 21.32H58.1497C58.183 21.1267 58.233 20.8667 58.2997 20.54C58.373 20.2133 58.4497 19.8733 58.5297 19.52C58.6097 19.1667 58.6864 18.8433 58.7597 18.55C58.833 18.2567 58.8864 18.04 58.9197 17.9L60.4497 12.35C60.7497 12.3033 61.0497 12.2733 61.3497 12.26C61.6497 12.24 61.9164 12.23 62.1497 12.23C62.383 12.23 62.6697 12.24 63.0097 12.26C63.3497 12.2733 63.6664 12.3033 63.9597 12.35L65.0197 25.97C64.8264 26.0167 64.603 26.05 64.3497 26.07C64.103 26.0967 63.873 26.11 63.6597 26.11C63.453 26.11 63.253 26.1033 63.0597 26.09C62.8664 26.0767 62.6697 26.0533 62.4697 26.02L62.0897 19.61C62.0697 19.19 62.0464 18.7233 62.0197 18.21C61.9997 17.69 61.9797 17.1733 61.9597 16.66C61.9464 16.1467 61.9364 15.6833 61.9297 15.27H61.8097L59.4597 23.95C59.2597 23.9833 59.0264 24.01 58.7597 24.03C58.4997 24.0433 58.273 24.05 58.0797 24.05C57.8997 24.05 57.6764 24.0433 57.4097 24.03C57.143 24.01 56.9097 23.9833 56.7097 23.95L54.3697 15.27H54.2497C54.243 15.6833 54.2297 16.1467 54.2097 16.66C54.1964 17.1733 54.1797 17.69 54.1597 18.21C54.1397 18.7233 54.1164 19.19 54.0897 19.61L53.6997 26.02C53.5064 26.0533 53.3097 26.0767 53.1097 26.09C52.9097 26.1033 52.7097 26.11 52.5097 26.11C52.2964 26.11 52.063 26.0967 51.8097 26.07C51.563 26.05 51.3464 26.0167 51.1597 25.97L52.2197 12.35ZM67.0355 23.29C67.0355 22.5033 67.2121 21.86 67.5655 21.36C67.9255 20.86 68.3988 20.49 68.9855 20.25C69.5788 20.01 70.2288 19.89 70.9355 19.89C71.2688 19.89 71.6655 19.9033 72.1255 19.93C72.5921 19.95 73.0188 20.0033 73.4055 20.09V21.78C73.0855 21.7067 72.7121 21.6633 72.2855 21.65C71.8655 21.63 71.4921 21.62 71.1655 21.62C70.6388 21.62 70.2455 21.7567 69.9855 22.03C69.7255 22.2967 69.5955 22.6567 69.5955 23.11C69.5955 23.45 69.6955 23.7333 69.8955 23.96C70.0955 24.1867 70.3721 24.3 70.7255 24.3C71.1655 24.3 71.6221 24.1433 72.0955 23.83C72.5755 23.5167 72.9788 23.0733 73.3055 22.5L73.6855 24.28C73.4321 24.5733 73.1355 24.8767 72.7955 25.19C72.4555 25.4967 72.0555 25.7567 71.5955 25.97C71.1421 26.1767 70.6188 26.28 70.0255 26.28C69.3521 26.28 68.7921 26.13 68.3455 25.83C67.9055 25.53 67.5755 25.15 67.3555 24.69C67.1421 24.23 67.0355 23.7633 67.0355 23.29ZM75.7555 24.81C75.7021 25.0433 75.5888 25.2933 75.4155 25.56C75.2488 25.8267 75.0755 26.0233 74.8955 26.15C74.3888 26.1033 73.9721 25.96 73.6455 25.72C73.3188 25.48 73.0721 25.19 72.9055 24.85C72.7455 24.5033 72.6421 24.1533 72.5955 23.8V19.41C72.5955 18.89 72.4721 18.51 72.2255 18.27C71.9788 18.0233 71.6155 17.9 71.1355 17.9C70.6688 17.9 70.1755 17.9733 69.6555 18.12C69.1355 18.26 68.6121 18.42 68.0855 18.6C67.8921 18.3867 67.7355 18.1067 67.6155 17.76C67.5021 17.4133 67.4321 17.0733 67.4055 16.74C67.8188 16.5667 68.2788 16.4133 68.7855 16.28C69.2988 16.1467 69.8155 16.0433 70.3355 15.97C70.8621 15.89 71.3455 15.85 71.7855 15.85C72.4055 15.85 72.9721 15.9633 73.4855 16.19C73.9988 16.4167 74.4121 16.78 74.7255 17.28C75.0388 17.7733 75.1955 18.4233 75.1955 19.23V23.31C75.1955 23.6367 75.2355 23.9267 75.3155 24.18C75.3955 24.4333 75.5421 24.6433 75.7555 24.81ZM77.0008 25.29C77.0141 25.0033 77.0974 24.6867 77.2508 24.34C77.4041 23.9867 77.5808 23.7067 77.7808 23.5C78.2141 23.7267 78.6674 23.9267 79.1408 24.1C79.6141 24.2733 80.0908 24.36 80.5708 24.36C81.0308 24.36 81.3874 24.27 81.6408 24.09C81.9008 23.91 82.0341 23.68 82.0408 23.4C82.0408 23.16 81.9508 22.9433 81.7708 22.75C81.5974 22.5567 81.3274 22.3967 80.9608 22.27L79.8208 21.86C79.3608 21.6867 78.9374 21.4733 78.5508 21.22C78.1708 20.96 77.8674 20.6433 77.6408 20.27C77.4208 19.8967 77.3108 19.45 77.3108 18.93C77.3108 18.2833 77.4674 17.7267 77.7808 17.26C78.0941 16.7867 78.5308 16.4233 79.0908 16.17C79.6508 15.9167 80.2941 15.79 81.0208 15.79C81.6074 15.79 82.2274 15.87 82.8808 16.03C83.5341 16.1833 84.0708 16.3633 84.4908 16.57C84.5041 16.7767 84.4808 17.0033 84.4208 17.25C84.3608 17.4967 84.2708 17.7267 84.1508 17.94C84.0374 18.1467 83.9074 18.31 83.7608 18.43C83.3741 18.2567 82.9408 18.0967 82.4608 17.95C81.9874 17.7967 81.5074 17.72 81.0208 17.72C80.6741 17.72 80.4008 17.8067 80.2008 17.98C80.0074 18.1467 79.9108 18.3567 79.9108 18.61C79.9108 18.8367 79.9908 19.0267 80.1508 19.18C80.3108 19.3333 80.5574 19.47 80.8908 19.59L82.1308 20.04C82.8841 20.3067 83.5041 20.69 83.9908 21.19C84.4841 21.6833 84.7308 22.34 84.7308 23.16C84.7308 24.12 84.3608 24.88 83.6208 25.44C82.8808 26 81.8774 26.28 80.6108 26.28C79.8974 26.28 79.2308 26.1833 78.6108 25.99C77.9908 25.79 77.4541 25.5567 77.0008 25.29ZM94.8594 23.17C94.8594 23.5233 94.906 23.85 94.9994 24.15C95.0927 24.45 95.2327 24.6767 95.4194 24.83C95.366 25.07 95.2527 25.32 95.0794 25.58C94.9127 25.8333 94.7394 26.0233 94.5594 26.15C93.786 26.0833 93.206 25.7767 92.8194 25.23C92.4394 24.6833 92.2494 24.04 92.2494 23.3V16.07C92.4294 16.0367 92.6327 16.0133 92.8594 16C93.0927 15.98 93.326 15.97 93.5594 15.97C93.7794 15.97 94.0027 15.98 94.2294 16C94.4627 16.0133 94.6727 16.0367 94.8594 16.07V23.17ZM86.6194 18.38C86.6194 18.0133 86.586 17.6667 86.5194 17.34C86.4594 17.0133 86.3527 16.73 86.1994 16.49C86.3927 16.3233 86.6327 16.19 86.9194 16.09C87.206 15.9833 87.5094 15.93 87.8294 15.93C88.3494 15.93 88.7127 16.07 88.9194 16.35C89.126 16.6233 89.2294 17.0267 89.2294 17.56V22.22C89.2294 22.7733 89.3027 23.18 89.4494 23.44C89.596 23.7 89.8694 23.83 90.2694 23.83C90.5427 23.83 90.8427 23.7633 91.1694 23.63C91.496 23.49 91.8127 23.2833 92.1194 23.01C92.426 22.7367 92.6827 22.4 92.8894 22V24.36C92.436 24.8467 91.9094 25.2733 91.3094 25.64C90.716 26 90.0594 26.18 89.3394 26.18C88.726 26.18 88.216 26.0333 87.8094 25.74C87.4094 25.44 87.1094 25.03 86.9094 24.51C86.716 23.99 86.6194 23.4033 86.6194 22.75V18.38ZM100.196 26C100.016 26.0333 99.8131 26.0567 99.5864 26.07C99.3597 26.09 99.1297 26.1 98.8964 26.1C98.4364 26.1 98.0164 26.0667 97.6364 26V11.42L97.7664 11.29H98.7764C99.3031 11.29 99.6697 11.4133 99.8764 11.66C100.09 11.9 100.196 12.3133 100.196 12.9V26ZM105.326 23.7C105.486 24.16 105.636 24.5133 105.776 24.76C105.916 25 106.086 25.19 106.286 25.33C106.086 25.5633 105.826 25.76 105.506 25.92C105.193 26.0733 104.866 26.15 104.526 26.15C104.12 26.15 103.816 26.05 103.616 25.85C103.416 25.6433 103.236 25.3167 103.076 24.87L102.376 23.03C102.203 22.5567 102.013 22.2433 101.806 22.09C101.606 21.93 101.323 21.85 100.956 21.85C100.716 21.85 100.493 21.86 100.286 21.88C100.08 21.8933 99.8631 21.9167 99.6364 21.95L98.8664 22.04V20.2H101.786C102.513 20.2 103.123 20.3533 103.616 20.66C104.11 20.96 104.483 21.4533 104.736 22.14L105.326 23.7ZM103.846 19.4C103.56 19.9267 103.173 20.3167 102.686 20.57C102.2 20.8167 101.593 20.94 100.866 20.94H99.1664V19.74L100.676 19.7C100.81 19.7 100.913 19.68 100.986 19.64C101.06 19.5933 101.133 19.5067 101.206 19.38L102.596 17.01C102.77 16.6833 102.973 16.4333 103.206 16.26C103.446 16.0867 103.76 16 104.146 16C104.42 16 104.666 16.0033 104.886 16.01C105.106 16.01 105.336 16.0167 105.576 16.03L105.696 16.19L103.846 19.4Z" fill="#007F5E"/>
</svg>
