<svg width="376" height="341" viewBox="0 0 376 341" fill="none" xmlns="http://www.w3.org/2000/svg">
<g clip-path="url(#clip0_72_382)">
<path d="M263.262 64.1523C263.446 65.4292 264.12 66.5838 265.141 67.3703C266.162 68.1569 267.448 68.5133 268.727 68.3638C268.987 68.3293 269.243 68.2733 269.493 68.1965L279.796 82.0531L288.653 79.2888L272.491 61.8358C272.093 60.8206 271.37 59.9661 270.436 59.4057C269.502 58.8453 268.409 58.6104 267.328 58.7378C266.713 58.8162 266.12 59.0151 265.582 59.3231C265.044 59.6312 264.572 60.0424 264.193 60.5333C263.814 61.0241 263.535 61.585 263.372 62.1839C263.209 62.7828 263.165 63.408 263.244 64.0237C263.249 64.0666 263.255 64.1095 263.262 64.1523Z" fill="#A0616A"/>
<path d="M336.016 126.04C336.016 126.04 297.544 108.05 287.812 96.5597L270.374 74.8656L279.218 67.6165L295.609 86.5333C295.46 90.5081 314.834 94.5831 325.249 100.377L336.016 126.04Z" fill="#E6E6E6"/>
<path d="M345.474 332.152L337.928 332.151L334.338 302.987L345.476 302.988L345.474 332.152Z" fill="#A0616A"/>
<path d="M345.74 340.039L322.535 340.038V339.744C322.535 337.344 323.486 335.042 325.18 333.345C326.874 331.648 329.171 330.695 331.567 330.694H331.567L335.806 327.472L343.715 330.695L345.74 330.695L345.74 340.039Z" fill="#2F2E41"/>
<path d="M327.484 325.481L320.135 327.198L310.026 299.615L320.872 297.08L327.484 325.481Z" fill="#A0616A"/>
<path d="M329.532 333.102L306.933 338.384L306.866 338.098C306.322 335.76 306.727 333.302 307.992 331.264C309.256 329.225 311.277 327.774 313.61 327.228L313.611 327.228L317.008 323.125L325.44 324.463L327.413 324.002L329.532 333.102Z" fill="#2F2E41"/>
<path d="M265.932 156.324C262.722 159.541 258.369 161.35 253.83 161.355H43.789C42.5025 161.339 41.222 161.177 39.9725 160.87L39.9701 160.869C36.237 159.97 32.9155 157.836 30.543 154.811C28.1706 151.786 26.8861 148.047 26.8975 144.2V144.198V72.6657C26.9048 68.1189 28.7117 63.7608 31.9218 60.5475C35.1318 57.3342 39.4826 55.528 44.0197 55.5249L253.831 55.5249L253.832 55.5249C256.579 55.5176 259.286 56.1815 261.719 57.4591L261.721 57.4601C262.689 57.963 263.604 58.5615 264.453 59.2467L264.459 59.2509C266.489 60.8433 268.13 62.8794 269.255 65.204C270.381 67.5285 270.961 70.0799 270.953 72.6636V72.6653V144.198C270.948 148.747 269.142 153.108 265.932 156.324Z" fill="#F2F2F2" stroke="#007F5E"/>
<path d="M239.752 160.291C249.289 137.067 259.335 114.072 269.892 91.3073V129.904C262.572 140.851 254.455 151.126 245.043 160.291H239.752Z" fill="#007F5E"/>
<path d="M263.789 60.0764C244.918 93.9972 225.173 127.402 204.554 160.291H200.964C221.927 126.886 242.015 92.9234 261.229 58.403C262.136 58.874 262.993 59.4346 263.789 60.0764Z" fill="#007F5E"/>
<path d="M125.309 97.1093C112.978 118.955 99.3692 140.052 84.5553 160.291H63.1558C77.1724 143.182 91.1994 126.073 105.237 108.964C109.264 104.037 113.634 98.8766 119.675 96.8748L125.309 97.1093Z" fill="#007F5E"/>
<path d="M96.8705 93.6062C94.6384 95.9364 92.5 98.3604 90.4865 100.878C86.0536 106.227 81.6832 111.622 77.2972 117.002C74.5657 120.349 71.8342 123.696 69.1339 127.042C68.2764 126.49 67.4624 125.873 66.699 125.197C62.3858 121.446 59.7106 116.152 59.2464 110.449C58.7822 104.746 60.5661 99.0871 64.2158 94.6859C67.8655 90.2846 73.0906 87.4908 78.7715 86.9031C84.4524 86.3154 90.137 87.9806 94.6072 91.5418C95.4128 92.1714 96.1694 92.8616 96.8705 93.6062Z" fill="white"/>
<path d="M217.572 108.807L176.552 93.7783L156.183 86.3185C149.55 83.8944 142.931 81.1264 136.079 79.3748C130.12 77.6685 123.793 77.75 117.88 79.6094C112.607 81.5646 107.781 84.5644 103.691 88.4297C101.881 90.1031 100.127 91.8286 98.4314 93.6062C96.1993 95.9364 94.0609 98.3604 92.0474 100.878C87.6145 106.227 83.2441 111.622 78.8581 117.002C76.1266 120.349 73.3951 123.696 70.6948 127.042C61.673 138.099 52.7033 149.182 43.7856 160.291C42.5859 160.277 41.3918 160.125 40.2268 159.837C49.5296 148.264 58.8739 136.718 68.2599 125.197C69.3369 123.852 70.4451 122.491 71.5377 121.146C76.111 115.532 80.6895 109.923 85.2733 104.319C88.8164 99.9869 92.3284 95.6236 96.1681 91.5419C96.5115 91.1666 96.8549 90.8069 97.2139 90.4315C105.003 82.3618 114.727 75.2305 126.371 75.0428C133.223 74.9334 139.841 77.1072 146.209 79.4061C153.062 81.8927 159.898 84.4262 166.75 86.944L208.051 102.083L218.384 105.867C220.21 106.524 219.429 109.495 217.572 108.807Z" fill="#007F5E"/>
<path d="M1.08683 80.672V37.7272C1.0891 36.3869 1.62187 35.1022 2.56827 34.155C3.51467 33.2078 4.79741 32.6755 6.13509 32.6747H61.677V31.5857H6.13509C4.50926 31.5868 2.95025 32.234 1.80009 33.3854C0.649927 34.5367 0.00255406 36.0982 0 37.7272V80.672L1.08683 80.672Z" fill="#007F5E"/>
<path d="M4.94217 184.062C3.84116 183.797 2.86158 183.168 2.16194 182.276C1.46229 181.384 1.0835 180.281 1.08682 179.147V136.207H-3.37732e-06V179.147C-0.0041021 180.525 0.45615 181.865 1.30627 182.949C2.1564 184.033 3.34667 184.798 4.68453 185.12C5.13278 185.23 5.59216 185.288 6.05367 185.294H61.677V184.205H6.0603C5.6834 184.2 5.30827 184.152 4.94217 184.062Z" fill="#007F5E"/>
<path d="M253.772 136.207V179.147C253.771 180.488 253.239 181.773 252.292 182.722C251.346 183.67 250.063 184.203 248.724 184.205H193.182V185.294H248.724C250.351 185.292 251.91 184.644 253.06 183.491C254.211 182.339 254.857 180.777 254.859 179.147V136.207H253.772Z" fill="#007F5E"/>
<path d="M252.681 33.2454C252.966 33.3937 253.236 33.5702 253.486 33.7723C254.085 34.2416 254.569 34.8419 254.901 35.5273C255.233 36.2127 255.405 36.9652 255.403 37.7271V80.672H256.49V37.7272C256.493 36.8012 256.284 35.8868 255.881 35.0537C255.478 34.2205 254.89 33.4908 254.162 32.92C253.857 32.6742 253.529 32.4595 253.182 32.279C252.309 31.8211 251.339 31.5831 250.354 31.5857H194.812V32.6746H250.354C251.165 32.6725 251.963 32.8684 252.681 33.2454Z" fill="#007F5E"/>
<path d="M352.013 190.548L305.061 192.906L301.801 208.695V222.759L299.8 275.124L313.756 315.955H324.945L323.809 310.783C324.429 309.913 324.778 308.878 324.811 307.81C324.844 306.741 324.56 305.687 323.994 304.781L323.096 303.343L321.635 297.171L318.375 274.303L332.339 222.759L334.134 316.772H346.289L348.072 314.731C349.062 313.598 349.652 312.17 349.749 310.667C349.846 309.164 349.446 307.671 348.611 306.419V304.14L347.176 296.082L360.572 196.059L352.013 190.548Z" fill="#2F2E41"/>
<path d="M331.726 92.5298L316.41 93.3156L314.67 100.589L303.548 109.117C301.033 111.046 299.107 113.64 297.987 116.607C296.866 119.574 296.596 122.797 297.206 125.91L303.372 157.334L302.971 177.003L303.86 185.057L303.793 186.276L302.431 187.393C301.505 188.153 300.864 189.206 300.614 190.379C300.365 191.552 300.521 192.776 301.058 193.848C301.058 193.848 294.346 208.387 304.057 209.126C313.769 209.866 319.775 199.748 329.054 203.681C338.333 207.615 346.617 208.076 349.16 203.681C351.704 199.287 359.443 200.311 360.374 196.472C361.304 192.633 356.592 188.288 355.96 182.566C355.327 176.844 353.696 150.165 353.696 150.165L358.256 123.972C358.901 120.264 358.325 116.446 356.615 113.094C354.906 109.743 352.154 107.039 348.776 105.391L334.18 98.2711L331.726 92.5298Z" fill="#E6E6E6"/>
<path d="M251.962 174.538C252.578 173.206 253.688 172.167 255.056 171.643C256.425 171.119 257.944 171.15 259.289 171.731C259.561 171.853 259.822 171.998 260.07 172.163L275.808 160.421L284.564 166.326L261.269 180.076C260.505 181.052 259.439 181.748 258.239 182.054C257.038 182.36 255.771 182.259 254.633 181.767C253.989 181.481 253.407 181.071 252.921 180.559C252.435 180.048 252.054 179.446 251.8 178.787C251.546 178.128 251.424 177.425 251.442 176.719C251.459 176.013 251.615 175.317 251.9 174.672C251.92 174.627 251.941 174.582 251.962 174.538Z" fill="#A0616A"/>
<path d="M300.86 112.614C300.86 112.614 280.46 149.833 272.559 160.78L266.562 165.473L267.106 180.814L280.507 173.404C280.507 173.404 307.55 152.88 306.774 144.335C305.999 135.789 300.86 112.614 300.86 112.614Z" fill="#E6E6E6"/>
<path d="M322.769 91.301C330.761 91.301 337.241 84.8091 337.241 76.8009C337.241 68.7927 330.761 62.3008 322.769 62.3008C314.776 62.3008 308.297 68.7927 308.297 76.8009C308.297 84.8091 314.776 91.301 322.769 91.301Z" fill="#A0616A"/>
<path d="M328.36 90.1125C324.208 89.9759 323.83 88.8769 319.677 88.7403C318.355 88.6969 316.795 88.5153 316.155 87.3547C315.7 86.5281 315.91 85.4872 316.31 84.6327C316.784 83.8171 317.211 82.9753 317.59 82.1111C317.818 81.4334 317.877 80.7103 317.764 80.0043C317.65 79.2982 317.367 78.6305 316.938 78.0588C316.509 77.4871 315.948 77.0287 315.303 76.7231C314.657 76.4174 313.948 76.2739 313.234 76.3047C311.971 76.3595 310.784 76.9549 309.523 77.0637C307.795 77.213 303.973 71.4951 304.769 69.9506C305.543 68.4471 307.102 67.3128 307.347 65.6387C307.508 64.5438 307.056 63.4559 306.995 62.351C306.903 60.7127 311.048 64.4067 310.289 62.9528C308.427 59.3862 325.974 54.9646 328.862 59.4321C329.942 61.1017 331.866 60.9878 333.581 61.9906C334.705 62.6478 337.543 64.9151 338.189 66.3283C338.781 67.7703 339.062 69.3221 339.01 70.8808C339.036 78.1299 337.934 84.798 332.098 89.083" fill="#2F2E41"/>
<path d="M256.212 336.7C252.287 337.046 248.335 336.51 244.644 335.131C240.953 333.751 237.617 331.563 234.878 328.726C231.296 324.943 228.839 320.073 226.462 315.364C225.77 313.994 225.055 312.577 224.327 311.218C223.516 309.738 223.166 308.047 223.322 306.366C223.478 304.684 224.133 303.087 225.203 301.782C226.228 300.477 227.62 299.509 229.199 299.004C230.778 298.498 232.472 298.478 234.062 298.946L234.409 299.046L237.531 311.25C237.996 309.43 238.996 305.328 239.627 301.31L239.68 300.973L239.991 301.112C243.25 302.557 246.315 304.407 249.113 306.62C254.069 310.603 258.1 315.62 260.926 321.322C263.752 327.024 265.304 333.274 265.476 339.638L265.484 340.017L256.212 336.7Z" fill="#F2F2F2"/>
<path d="M375.353 340.833L223.877 341C223.706 341 223.542 340.931 223.421 340.809C223.3 340.688 223.232 340.523 223.232 340.352C223.232 340.18 223.3 340.016 223.421 339.894C223.542 339.772 223.706 339.704 223.877 339.703L375.353 339.536C375.438 339.536 375.522 339.552 375.601 339.585C375.68 339.617 375.751 339.665 375.812 339.725C375.872 339.786 375.92 339.857 375.952 339.936C375.985 340.015 376.002 340.099 376.002 340.184C376.002 340.27 375.985 340.354 375.952 340.433C375.92 340.512 375.872 340.583 375.812 340.643C375.751 340.704 375.68 340.751 375.601 340.784C375.522 340.816 375.438 340.833 375.353 340.833Z" fill="white"/>
<path d="M86.6481 229.581C83.9353 229.581 81.2832 228.775 79.0274 227.264C76.7715 225.754 75.0132 223.608 73.9748 221.096C72.9364 218.584 72.6647 215.82 73.1941 213.154C73.7235 210.487 75.0301 208.038 76.9486 206.116C78.8671 204.193 81.3114 202.884 83.9721 202.354C86.6329 201.824 89.3909 202.096 91.8974 203.136C94.4038 204.177 96.5463 205.938 98.0537 208.199C99.5612 210.459 100.366 213.117 100.366 215.835C100.366 219.481 98.9203 222.977 96.3477 225.555C93.775 228.133 90.286 229.581 86.6481 229.581Z" fill="#E6E6E6" stroke="#007F5E"/>
<path d="M92.2581 214.43H88.0506V210.215C88.0499 209.842 87.9018 209.486 87.6389 209.223C87.3759 208.96 87.0196 208.812 86.6481 208.812C86.2766 208.812 85.9203 208.96 85.6574 209.223C85.3944 209.486 85.2464 209.842 85.2456 210.215V214.43H81.0381C80.6667 214.431 80.3106 214.579 80.0482 214.843C79.7858 215.106 79.6384 215.463 79.6384 215.835C79.6384 216.208 79.7858 216.565 80.0482 216.828C80.3106 217.092 80.6667 217.24 81.0381 217.241H85.2456V221.456C85.2464 221.828 85.3944 222.185 85.6574 222.448C85.9203 222.711 86.2766 222.859 86.6481 222.859C87.0196 222.859 87.3759 222.711 87.6389 222.448C87.9018 222.185 88.0499 221.828 88.0506 221.456V217.241H92.258C92.4425 217.241 92.6251 217.205 92.7956 217.134C92.9661 217.064 93.121 216.961 93.2515 216.83C93.3821 216.7 93.4856 216.544 93.5563 216.374C93.6269 216.203 93.6633 216.02 93.6633 215.835C93.6633 215.651 93.6269 215.468 93.5563 215.297C93.4856 215.126 93.3821 214.971 93.2515 214.841C93.121 214.71 92.9661 214.607 92.7956 214.536C92.6251 214.466 92.4425 214.43 92.258 214.43H92.2581Z" fill="#007F5E"/>
<path d="M128.245 229.581C125.532 229.581 122.88 228.775 120.624 227.264C118.368 225.754 116.61 223.608 115.571 221.096C114.533 218.584 114.261 215.82 114.791 213.154C115.32 210.487 116.627 208.038 118.545 206.116C120.464 204.193 122.908 202.884 125.569 202.354C128.23 201.824 130.988 202.096 133.494 203.136C136 204.177 138.143 205.938 139.65 208.199C141.158 210.459 141.962 213.117 141.962 215.835C141.962 219.481 140.517 222.977 137.944 225.555C135.372 228.133 131.883 229.581 128.245 229.581Z" fill="#E6E6E6" stroke="#007F5E"/>
<path d="M133.855 214.43H122.635C122.263 214.431 121.907 214.579 121.645 214.843C121.382 215.106 121.235 215.463 121.235 215.835C121.235 216.208 121.382 216.565 121.645 216.828C121.907 217.092 122.263 217.24 122.635 217.241H133.855C134.227 217.241 134.583 217.093 134.846 216.829C135.109 216.566 135.257 216.208 135.257 215.835C135.257 215.463 135.109 215.105 134.846 214.842C134.583 214.578 134.227 214.43 133.855 214.43Z" fill="#007F5E"/>
<path d="M169.841 229.581C167.128 229.581 164.476 228.775 162.221 227.264C159.965 225.754 158.206 223.608 157.168 221.096C156.13 218.584 155.858 215.82 156.387 213.154C156.917 210.487 158.223 208.038 160.142 206.116C162.06 204.193 164.505 202.884 167.165 202.354C169.826 201.824 172.584 202.096 175.091 203.136C177.597 204.177 179.739 205.938 181.247 208.199C182.754 210.459 183.559 213.117 183.559 215.835C183.559 219.481 182.114 222.977 179.541 225.555C176.968 228.133 173.479 229.581 169.841 229.581Z" fill="#E6E6E6" stroke="#007F5E"/>
<path d="M177.84 215.159L173.809 209.264C173.721 209.134 173.607 209.023 173.476 208.938C173.344 208.852 173.197 208.793 173.043 208.764C172.888 208.735 172.73 208.737 172.576 208.769C172.423 208.802 172.277 208.864 172.148 208.953C172.018 209.042 171.907 209.156 171.822 209.287C171.736 209.419 171.677 209.567 171.648 209.721C171.619 209.876 171.621 210.034 171.654 210.188C171.686 210.342 171.748 210.488 171.837 210.618L174.444 214.43H164.231C164.047 214.43 163.865 214.467 163.695 214.537C163.525 214.608 163.37 214.711 163.24 214.842C163.109 214.972 163.006 215.127 162.936 215.298C162.865 215.468 162.829 215.651 162.829 215.835C162.829 216.02 162.865 216.203 162.936 216.373C163.006 216.544 163.109 216.699 163.24 216.829C163.37 216.96 163.525 217.063 163.695 217.134C163.865 217.204 164.047 217.241 164.231 217.241H174.572L171.837 221.24C171.658 221.502 171.59 221.825 171.648 222.137C171.706 222.45 171.886 222.726 172.148 222.905C172.409 223.085 172.731 223.153 173.043 223.095C173.354 223.036 173.63 222.856 173.809 222.594L177.84 216.7C177.971 216.464 178.04 216.199 178.04 215.929C178.04 215.659 177.971 215.394 177.84 215.159Z" fill="#007F5E"/>
<path d="M128.245 30.2505C136.582 30.2505 143.341 23.4787 143.341 15.1253C143.341 6.77181 136.582 0 128.245 0C119.907 0 113.149 6.77181 113.149 15.1253C113.149 23.4787 119.907 30.2505 128.245 30.2505Z" fill="#007F5E"/>
<path d="M126.185 22.9972C125.925 22.9972 125.668 22.9364 125.434 22.8196C125.201 22.7027 124.998 22.5331 124.842 22.3241L120.724 16.8221C120.591 16.6454 120.494 16.4442 120.439 16.23C120.384 16.0158 120.372 15.7928 120.403 15.5738C120.434 15.3548 120.508 15.1441 120.62 14.9537C120.732 14.7633 120.881 14.597 121.058 14.4643C121.234 14.3316 121.435 14.2351 121.649 14.1803C121.863 14.1255 122.086 14.1135 122.304 14.145C122.523 14.1765 122.733 14.2508 122.923 14.3638C123.113 14.4768 123.278 14.6261 123.41 14.8033L126.105 18.4025L133.025 8.0022C133.147 7.81814 133.305 7.66001 133.488 7.53687C133.671 7.41373 133.877 7.32798 134.093 7.28453C134.309 7.24107 134.532 7.24077 134.749 7.28362C134.965 7.32648 135.171 7.41166 135.355 7.53429C135.538 7.65692 135.696 7.8146 135.819 7.99832C135.941 8.18204 136.027 8.38819 136.07 8.60499C136.113 8.8218 136.113 9.045 136.07 9.26185C136.027 9.47869 135.942 9.68493 135.82 9.86877L127.583 22.248C127.434 22.4719 127.233 22.6567 126.998 22.787C126.763 22.9172 126.501 22.9892 126.232 22.9967C126.217 22.997 126.201 22.9972 126.185 22.9972Z" fill="white"/>
</g>
<defs>
<clipPath id="clip0_72_382">
<rect width="376" height="341" fill="white"/>
</clipPath>
</defs>
</svg>
