<svg width="140" height="55" viewBox="0 0 140 55" fill="none" xmlns="http://www.w3.org/2000/svg">
<g filter="url(#filter0_d_137_528)">
<path d="M83.488 24.152V21.752H91.248V21.336C91.248 20.5893 91.1413 19.9067 90.928 19.288C90.7253 18.6587 90.3893 18.1573 89.92 17.784C89.4613 17.4107 88.848 17.224 88.08 17.224C86.992 17.224 86.176 17.6827 85.632 18.6C85.088 19.5173 84.816 20.7813 84.816 22.392V23.4C84.816 24.4027 84.9173 25.3093 85.12 26.12C85.3333 26.92 85.7067 27.5547 86.24 28.024C86.7733 28.4827 87.5307 28.712 88.512 28.712C89.312 28.712 90.0853 28.6 90.832 28.376C91.5787 28.1413 92.288 27.848 92.96 27.496C93.2373 27.7627 93.4667 28.0987 93.648 28.504C93.84 28.8987 93.9573 29.2667 94 29.608C93.2427 30.1627 92.3307 30.6053 91.264 30.936C90.208 31.256 89.12 31.416 88 31.416C86.7307 31.416 85.6693 31.192 84.816 30.744C83.9733 30.296 83.3013 29.6827 82.8 28.904C82.3093 28.1147 81.952 27.224 81.728 26.232C81.5147 25.24 81.408 24.2053 81.408 23.128C81.408 21.5387 81.6533 20.1147 82.144 18.856C82.6453 17.5973 83.392 16.6053 84.384 15.88C85.376 15.1547 86.608 14.792 88.08 14.792C89.4667 14.792 90.6293 15.096 91.568 15.704C92.5173 16.312 93.232 17.1333 93.712 18.168C94.192 19.192 94.432 20.3387 94.432 21.608C94.432 22.12 94.4107 22.5627 94.368 22.936C94.336 23.2987 94.2773 23.704 94.192 24.152H83.488ZM105.993 30.488C105.524 32.12 105.006 33.4907 104.441 34.6C103.886 35.7093 103.172 36.552 102.297 37.128C101.422 37.704 100.276 37.992 98.857 37.992C98.3557 37.992 97.801 37.9333 97.193 37.816C96.5957 37.7093 96.1317 37.5973 95.801 37.48C95.769 37.0853 95.8223 36.6533 95.961 36.184C96.1103 35.7253 96.2917 35.368 96.505 35.112C96.761 35.1973 97.113 35.2827 97.561 35.368C98.0197 35.4533 98.4623 35.496 98.889 35.496C99.6037 35.496 100.196 35.336 100.665 35.016C101.145 34.696 101.545 34.2373 101.865 33.64C102.196 33.0427 102.478 32.344 102.713 31.544L102.825 31.16C102.164 31.1387 101.636 31.0107 101.241 30.776C100.846 30.5307 100.548 30.088 100.345 29.448L96.153 15.464C96.5263 15.2827 96.8837 15.1547 97.225 15.08C97.577 15.0053 97.8863 14.968 98.153 14.968C98.5477 14.968 98.8837 15.0693 99.161 15.272C99.449 15.464 99.6677 15.8533 99.817 16.44L101.977 23.8C102.137 24.2907 102.286 24.824 102.425 25.4C102.574 25.976 102.713 26.536 102.841 27.08C102.98 27.6133 103.092 28.088 103.177 28.504C103.22 28.6533 103.321 28.728 103.481 28.728L106.985 15.192C107.188 15.1493 107.417 15.1173 107.673 15.096C107.929 15.0747 108.174 15.064 108.409 15.064C108.697 15.064 108.985 15.08 109.273 15.112C109.561 15.144 109.838 15.2027 110.105 15.288L110.217 15.48L105.993 30.488ZM113.707 24.152V21.752H121.467V21.336C121.467 20.5893 121.36 19.9067 121.147 19.288C120.944 18.6587 120.608 18.1573 120.139 17.784C119.68 17.4107 119.067 17.224 118.299 17.224C117.211 17.224 116.395 17.6827 115.851 18.6C115.307 19.5173 115.035 20.7813 115.035 22.392V23.4C115.035 24.4027 115.136 25.3093 115.339 26.12C115.552 26.92 115.925 27.5547 116.459 28.024C116.992 28.4827 117.749 28.712 118.731 28.712C119.531 28.712 120.304 28.6 121.051 28.376C121.797 28.1413 122.507 27.848 123.179 27.496C123.456 27.7627 123.685 28.0987 123.867 28.504C124.059 28.8987 124.176 29.2667 124.219 29.608C123.461 30.1627 122.549 30.6053 121.483 30.936C120.427 31.256 119.339 31.416 118.219 31.416C116.949 31.416 115.888 31.192 115.035 30.744C114.192 30.296 113.52 29.6827 113.019 28.904C112.528 28.1147 112.171 27.224 111.947 26.232C111.733 25.24 111.627 24.2053 111.627 23.128C111.627 21.5387 111.872 20.1147 112.363 18.856C112.864 17.5973 113.611 16.6053 114.603 15.88C115.595 15.1547 116.827 14.792 118.299 14.792C119.685 14.792 120.848 15.096 121.787 15.704C122.736 16.312 123.451 17.1333 123.931 18.168C124.411 19.192 124.651 20.3387 124.651 21.608C124.651 22.12 124.629 22.5627 124.587 22.936C124.555 23.2987 124.496 23.704 124.411 24.152H113.707Z" fill="#007F5E"/>
</g>
<path d="M51.24 31C51.016 31.0427 50.76 31.0747 50.472 31.096C50.184 31.1174 49.8907 31.128 49.592 31.128C49.2933 31.128 49 31.1174 48.712 31.096C48.424 31.0747 48.1627 31.0427 47.928 31V19.272C47.928 18.7067 47.8267 18.2907 47.624 18.024C47.432 17.7467 47.0693 17.608 46.536 17.608H46.184C46.088 17.224 46.04 16.8347 46.04 16.44C46.04 16.248 46.0507 16.056 46.072 15.864C46.0933 15.6614 46.1307 15.4534 46.184 15.24C46.5893 15.1867 46.968 15.1494 47.32 15.128C47.6827 15.1067 47.9813 15.096 48.216 15.096H48.648C49.448 15.096 50.0773 15.352 50.536 15.864C51.0053 16.3654 51.24 17.0534 51.24 17.928V31ZM46.952 10.936C46.952 10.7014 46.9733 10.4507 47.016 10.184C47.0693 9.91736 47.144 9.68803 47.24 9.49603C47.432 9.38936 47.6933 9.2987 48.024 9.22403C48.3653 9.14936 48.6907 9.11203 49 9.11203C49.2987 9.11203 49.624 9.14936 49.976 9.22403C50.328 9.2987 50.5893 9.38936 50.76 9.49603C50.856 9.68803 50.9253 9.9227 50.968 10.2C51.0213 10.4667 51.048 10.712 51.048 10.936C51.048 11.16 51.0213 11.4054 50.968 11.672C50.9253 11.9387 50.856 12.168 50.76 12.36C50.6107 12.4667 50.3547 12.5627 49.992 12.648C49.6293 12.7227 49.2987 12.76 49 12.76C48.6907 12.76 48.3653 12.7227 48.024 12.648C47.6827 12.5734 47.4213 12.4774 47.24 12.36C47.144 12.168 47.0693 11.9387 47.016 11.672C46.9733 11.4054 46.952 11.16 46.952 10.936ZM59.9275 31C59.7035 31.0427 59.4475 31.0747 59.1595 31.096C58.8715 31.1174 58.5782 31.128 58.2795 31.128C57.9808 31.128 57.6875 31.1174 57.3995 31.096C57.1115 31.0747 56.8502 31.0427 56.6155 31V19.272C56.6155 18.7067 56.5142 18.2907 56.3115 18.024C56.1195 17.7467 55.7568 17.608 55.2235 17.608H54.8715C54.7755 17.224 54.7275 16.8347 54.7275 16.44C54.7275 16.248 54.7382 16.056 54.7595 15.864C54.7808 15.6614 54.8182 15.4534 54.8715 15.24C55.2768 15.1867 55.6555 15.1494 56.0075 15.128C56.3702 15.1067 56.6688 15.096 56.9035 15.096H57.3355C58.1355 15.096 58.7648 15.352 59.2235 15.864C59.6928 16.3654 59.9275 17.0534 59.9275 17.928V31ZM55.6395 10.936C55.6395 10.7014 55.6608 10.4507 55.7035 10.184C55.7568 9.91736 55.8315 9.68803 55.9275 9.49603C56.1195 9.38936 56.3808 9.2987 56.7115 9.22403C57.0528 9.14936 57.3782 9.11203 57.6875 9.11203C57.9862 9.11203 58.3115 9.14936 58.6635 9.22403C59.0155 9.2987 59.2768 9.38936 59.4475 9.49603C59.5435 9.68803 59.6128 9.9227 59.6555 10.2C59.7088 10.4667 59.7355 10.712 59.7355 10.936C59.7355 11.16 59.7088 11.4054 59.6555 11.672C59.6128 11.9387 59.5435 12.168 59.4475 12.36C59.2982 12.4667 59.0422 12.5627 58.6795 12.648C58.3168 12.7227 57.9862 12.76 57.6875 12.76C57.3782 12.76 57.0528 12.7227 56.7115 12.648C56.3702 12.5734 56.1088 12.4774 55.9275 12.36C55.8315 12.168 55.7568 11.9387 55.7035 11.672C55.6608 11.4054 55.6395 11.16 55.6395 10.936ZM65.3068 12.408C65.3068 11.672 65.4294 11.1387 65.6748 10.808C65.9201 10.4667 66.3894 10.296 67.0828 10.296H68.3308L68.5388 10.52V27.128C68.5388 27.5547 68.6401 27.896 68.8428 28.152C69.0454 28.3974 69.3868 28.52 69.8668 28.52H72.0748C72.2454 29.0214 72.3308 29.576 72.3308 30.184C72.3308 30.3014 72.3254 30.424 72.3148 30.552C72.3148 30.68 72.2988 30.7974 72.2668 30.904C71.7334 30.968 71.1628 31.0214 70.5548 31.064C69.9468 31.1174 69.3281 31.144 68.6988 31.144C67.6108 31.144 66.7734 30.872 66.1868 30.328C65.6001 29.7734 65.3068 28.9467 65.3068 27.848V12.408ZM72.4908 15.176C72.5974 15.5707 72.6508 15.9707 72.6508 16.376C72.6508 16.824 72.5974 17.2347 72.4908 17.608L67.2588 17.544L62.9548 17.608C62.8694 17.2134 62.8268 16.8027 62.8268 16.376C62.8268 15.992 62.8694 15.592 62.9548 15.176L67.3068 15.24L72.4908 15.176ZM75.3895 29.256C75.3895 29.064 75.4162 28.7974 75.4695 28.456C75.5228 28.1147 75.5975 27.848 75.6935 27.656C75.9068 27.5387 76.2002 27.4427 76.5735 27.368C76.9468 27.2827 77.3042 27.24 77.6455 27.24C77.9655 27.24 78.3175 27.2827 78.7015 27.368C79.0962 27.4427 79.3948 27.5387 79.5975 27.656C79.7042 27.848 79.7842 28.1147 79.8375 28.456C79.8908 28.7974 79.9175 29.064 79.9175 29.256C79.9175 29.448 79.8908 29.7147 79.8375 30.056C79.7842 30.3867 79.7042 30.648 79.5975 30.84C79.4162 30.968 79.1228 31.0694 78.7175 31.144C78.3228 31.2187 77.9655 31.256 77.6455 31.256C77.3042 31.256 76.9468 31.2187 76.5735 31.144C76.2002 31.0694 75.9068 30.968 75.6935 30.84C75.5975 30.648 75.5228 30.3867 75.4695 30.056C75.4162 29.7147 75.3895 29.448 75.3895 29.256Z" fill="white"/>
<path d="M20 36.6667C29.2047 36.6667 36.6667 29.2048 36.6667 20C36.6667 10.7953 29.2047 3.33334 20 3.33334C10.7953 3.33334 3.33334 10.7953 3.33334 20C3.33334 29.2048 10.7953 36.6667 20 36.6667Z" stroke="white" stroke-width="3.33333" stroke-linecap="round" stroke-linejoin="round"/>
<path d="M25 15H15V25H25V15Z" stroke="white" stroke-width="3.33333" stroke-linecap="round" stroke-linejoin="round"/>
<defs>
<filter id="filter0_d_137_528" x="66.408" y="1.79199" width="73.2428" height="53.2" filterUnits="userSpaceOnUse" color-interpolation-filters="sRGB">
<feFlood flood-opacity="0" result="BackgroundImageFix"/>
<feColorMatrix in="SourceAlpha" type="matrix" values="0 0 0 0 0 0 0 0 0 0 0 0 0 0 0 0 0 0 127 0" result="hardAlpha"/>
<feOffset dy="2"/>
<feGaussianBlur stdDeviation="7.5"/>
<feComposite in2="hardAlpha" operator="out"/>
<feColorMatrix type="matrix" values="0 0 0 0 1 0 0 0 0 1 0 0 0 0 1 0 0 0 1 0"/>
<feBlend mode="normal" in2="BackgroundImageFix" result="effect1_dropShadow_137_528"/>
<feBlend mode="normal" in="SourceGraphic" in2="effect1_dropShadow_137_528" result="shape"/>
</filter>
</defs>
</svg>
