<svg width="429" height="34" viewBox="0 0 429 34" fill="none" xmlns="http://www.w3.org/2000/svg">
<rect x="174" width="255" height="34" rx="17" fill="url(#paint0_linear_69_248)"/>
<path d="M357.5 12.1712C359.236 12.1712 359.441 12.1778 360.127 12.2091C360.76 12.238 361.104 12.3439 361.334 12.4329C361.637 12.5508 361.853 12.6917 362.081 12.9191C362.308 13.1466 362.449 13.3631 362.567 13.6665C362.656 13.8956 362.762 14.2397 362.791 14.8734C362.822 15.5589 362.829 15.7644 362.829 17.5C362.829 19.2356 362.822 19.4412 362.791 20.1266C362.762 20.7603 362.656 21.1045 362.567 21.3335C362.449 21.6369 362.308 21.8535 362.081 22.0809C361.853 22.3084 361.637 22.4492 361.334 22.5671C361.104 22.6561 360.76 22.762 360.127 22.791C359.441 22.8222 359.236 22.8288 357.5 22.8288C355.764 22.8288 355.559 22.8222 354.873 22.791C354.24 22.762 353.896 22.6561 353.666 22.5671C353.363 22.4492 353.147 22.3084 352.919 22.0809C352.692 21.8535 352.551 21.6369 352.433 21.3335C352.344 21.1045 352.238 20.7603 352.209 20.1266C352.178 19.4412 352.171 19.2356 352.171 17.5C352.171 15.7644 352.178 15.5589 352.209 14.8735C352.238 14.2397 352.344 13.8956 352.433 13.6665C352.551 13.3631 352.692 13.1466 352.919 12.9191C353.147 12.6917 353.363 12.5508 353.666 12.4329C353.896 12.3439 354.24 12.238 354.873 12.2091C355.559 12.1778 355.764 12.1712 357.5 12.1712ZM357.5 11C355.735 11 355.513 11.0075 354.82 11.0391C354.128 11.0707 353.656 11.1806 353.242 11.3413C352.815 11.5074 352.452 11.7296 352.091 12.091C351.73 12.4523 351.507 12.8148 351.341 13.2423C351.181 13.6557 351.071 14.1282 351.039 14.8201C351.007 15.5134 351 15.7347 351 17.5C351 19.2653 351.007 19.4867 351.039 20.1799C351.071 20.8718 351.181 21.3443 351.341 21.7578C351.507 22.1852 351.73 22.5477 352.091 22.909C352.452 23.2704 352.815 23.4927 353.242 23.6588C353.656 23.8195 354.128 23.9293 354.82 23.9609C355.513 23.9925 355.735 24 357.5 24C359.265 24 359.487 23.9925 360.18 23.9609C360.872 23.9293 361.344 23.8195 361.758 23.6588C362.185 23.4927 362.548 23.2704 362.909 22.909C363.27 22.5477 363.493 22.1852 363.659 21.7578C363.819 21.3443 363.929 20.8718 363.961 20.1799C363.993 19.4867 364 19.2653 364 17.5C364 15.7347 363.993 15.5134 363.961 14.8201C363.929 14.1282 363.819 13.6557 363.659 13.2423C363.493 12.8148 363.27 12.4523 362.909 12.091C362.548 11.7296 362.185 11.5074 361.758 11.3413C361.344 11.1806 360.872 11.0707 360.18 11.0391C359.487 11.0075 359.265 11 357.5 11ZM357.5 14.1622C355.657 14.1622 354.162 15.6566 354.162 17.5C354.162 19.3434 355.657 20.8379 357.5 20.8379C359.343 20.8379 360.838 19.3434 360.838 17.5C360.838 15.6566 359.343 14.1622 357.5 14.1622ZM357.5 19.6667C356.303 19.6667 355.333 18.6966 355.333 17.5C355.333 16.3034 356.303 15.3333 357.5 15.3333C358.697 15.3333 359.667 16.3034 359.667 17.5C359.667 18.6966 358.697 19.6667 357.5 19.6667ZM361.75 14.0303C361.75 14.4611 361.4 14.8103 360.97 14.8103C360.539 14.8103 360.19 14.4611 360.19 14.0303C360.19 13.5995 360.539 13.2503 360.97 13.2503C361.4 13.2503 361.75 13.5995 361.75 14.0303Z" fill="white"/>
<path d="M232.293 20.2135C232.314 19.9622 232.392 19.7173 232.527 19.479C232.665 19.2363 232.819 19.0413 232.988 18.894C233.361 19.128 233.777 19.3317 234.236 19.505C234.7 19.674 235.159 19.7585 235.614 19.7585C236.06 19.7585 236.396 19.6567 236.622 19.453C236.847 19.2493 236.96 19.0067 236.96 18.725C236.96 18.5083 236.886 18.296 236.739 18.088C236.596 17.88 236.338 17.698 235.965 17.542L234.399 16.892C233.857 16.6623 233.417 16.3633 233.079 15.995C232.741 15.6267 232.572 15.1478 232.572 14.5585C232.572 14.0515 232.704 13.6008 232.969 13.2065C233.233 12.8122 233.595 12.5023 234.054 12.277C234.518 12.0517 235.042 11.939 235.627 11.939C236.208 11.939 236.752 12.0148 237.259 12.1665C237.77 12.3138 238.195 12.4742 238.532 12.6475C238.52 12.8988 238.459 13.1437 238.351 13.382C238.247 13.6203 238.106 13.8175 237.928 13.9735C237.594 13.8132 237.215 13.6702 236.791 13.5445C236.366 13.4188 235.982 13.356 235.64 13.356C235.215 13.356 234.895 13.4557 234.678 13.655C234.466 13.8543 234.36 14.0818 234.36 14.3375C234.36 14.5628 234.435 14.7535 234.587 14.9095C234.739 15.0612 234.966 15.202 235.27 15.332L236.849 15.982C237.243 16.1467 237.588 16.3503 237.883 16.593C238.177 16.8357 238.405 17.1152 238.565 17.4315C238.725 17.7478 238.806 18.0967 238.806 18.478C238.806 18.9893 238.682 19.4508 238.435 19.8625C238.192 20.2698 237.826 20.5927 237.337 20.831C236.847 21.065 236.234 21.182 235.497 21.182C234.964 21.182 234.412 21.0975 233.84 20.9285C233.268 20.7595 232.752 20.5212 232.293 20.2135ZM240.796 18.3155V17.126H243.585V16.9635C243.585 16.7165 243.548 16.489 243.474 16.281C243.405 16.073 243.292 15.9062 243.136 15.7805C242.985 15.6548 242.779 15.592 242.519 15.592C242.142 15.592 241.867 15.7502 241.693 16.0665C241.524 16.3785 241.44 16.8313 241.44 17.425V17.9385C241.44 18.2895 241.472 18.6102 241.537 18.9005C241.607 19.1908 241.737 19.4227 241.927 19.596C242.122 19.765 242.404 19.8495 242.772 19.8495C243.084 19.8495 243.385 19.8083 243.676 19.726C243.97 19.6393 244.252 19.5332 244.521 19.4075C244.651 19.5375 244.757 19.7 244.839 19.895C244.926 20.09 244.982 20.2742 245.008 20.4475C244.688 20.6772 244.304 20.857 243.858 20.987C243.416 21.117 242.965 21.182 242.506 21.182C241.96 21.182 241.507 21.0888 241.147 20.9025C240.788 20.7162 240.502 20.4648 240.289 20.1485C240.081 19.8278 239.934 19.466 239.847 19.063C239.761 18.6557 239.717 18.2353 239.717 17.802C239.717 17.152 239.817 16.567 240.016 16.047C240.216 15.527 240.523 15.1175 240.939 14.8185C241.355 14.5152 241.886 14.3635 242.532 14.3635C243.099 14.3635 243.578 14.487 243.968 14.734C244.363 14.9767 244.662 15.306 244.865 15.722C245.073 16.138 245.177 16.606 245.177 17.126C245.177 17.3773 245.166 17.5897 245.145 17.763C245.123 17.932 245.088 18.1162 245.041 18.3155H240.796ZM247.271 18.3155V17.126H250.059V16.9635C250.059 16.7165 250.023 16.489 249.949 16.281C249.88 16.073 249.767 15.9062 249.611 15.7805C249.459 15.6548 249.253 15.592 248.993 15.592C248.616 15.592 248.341 15.7502 248.168 16.0665C247.999 16.3785 247.914 16.8313 247.914 17.425V17.9385C247.914 18.2895 247.947 18.6102 248.012 18.9005C248.081 19.1908 248.211 19.4227 248.402 19.596C248.597 19.765 248.879 19.8495 249.247 19.8495C249.559 19.8495 249.86 19.8083 250.15 19.726C250.445 19.6393 250.727 19.5332 250.995 19.4075C251.125 19.5375 251.232 19.7 251.314 19.895C251.401 20.09 251.457 20.2742 251.483 20.4475C251.162 20.6772 250.779 20.857 250.332 20.987C249.89 21.117 249.44 21.182 248.98 21.182C248.434 21.182 247.982 21.0888 247.622 20.9025C247.262 20.7162 246.976 20.4648 246.764 20.1485C246.556 19.8278 246.409 19.466 246.322 19.063C246.235 18.6557 246.192 18.2353 246.192 17.802C246.192 17.152 246.292 16.567 246.491 16.047C246.69 15.527 246.998 15.1175 247.414 14.8185C247.83 14.5152 248.361 14.3635 249.006 14.3635C249.574 14.3635 250.053 14.487 250.443 14.734C250.837 14.9767 251.136 15.306 251.34 15.722C251.548 16.138 251.652 16.606 251.652 17.126C251.652 17.3773 251.641 17.5897 251.619 17.763C251.598 17.932 251.563 18.1162 251.515 18.3155H247.271ZM261.249 19.1605C261.249 19.3902 261.28 19.6025 261.34 19.7975C261.401 19.9925 261.492 20.1398 261.613 20.2395C261.579 20.3955 261.505 20.558 261.392 20.727C261.284 20.8917 261.171 21.0152 261.054 21.0975C260.552 21.0542 260.175 20.8548 259.923 20.4995C259.676 20.1442 259.553 19.726 259.553 19.245V14.5455C259.67 14.5238 259.802 14.5087 259.949 14.5C260.101 14.487 260.253 14.4805 260.404 14.4805C260.547 14.4805 260.693 14.487 260.84 14.5C260.992 14.5087 261.128 14.5238 261.249 14.5455V19.1605ZM255.893 16.047C255.893 15.8087 255.872 15.5833 255.828 15.371C255.789 15.1587 255.72 14.9745 255.62 14.8185C255.746 14.7102 255.902 14.6235 256.088 14.5585C256.275 14.4892 256.472 14.4545 256.68 14.4545C257.018 14.4545 257.254 14.5455 257.388 14.7275C257.523 14.9052 257.59 15.1673 257.59 15.514V18.543C257.59 18.9027 257.638 19.167 257.733 19.336C257.828 19.505 258.006 19.5895 258.266 19.5895C258.444 19.5895 258.639 19.5462 258.851 19.4595C259.063 19.3685 259.269 19.2342 259.468 19.0565C259.668 18.8788 259.835 18.66 259.969 18.4V19.934C259.674 20.2503 259.332 20.5277 258.942 20.766C258.556 21 258.129 21.117 257.661 21.117C257.263 21.117 256.931 21.0217 256.667 20.831C256.407 20.636 256.212 20.3695 256.082 20.0315C255.956 19.6935 255.893 19.3122 255.893 18.8875V16.047ZM262.489 20.5385C262.498 20.3522 262.552 20.1463 262.652 19.921C262.751 19.6913 262.866 19.5093 262.996 19.375C263.278 19.5223 263.572 19.6523 263.88 19.765C264.188 19.8777 264.498 19.934 264.81 19.934C265.109 19.934 265.34 19.8755 265.505 19.7585C265.674 19.6415 265.761 19.492 265.765 19.31C265.765 19.154 265.707 19.0132 265.59 18.8875C265.477 18.7618 265.301 18.6578 265.063 18.5755L264.322 18.309C264.023 18.1963 263.748 18.0577 263.497 17.893C263.25 17.724 263.052 17.5182 262.905 17.2755C262.762 17.0328 262.691 16.7425 262.691 16.4045C262.691 15.9842 262.792 15.6223 262.996 15.319C263.2 15.0113 263.484 14.7752 263.848 14.6105C264.212 14.4458 264.63 14.3635 265.102 14.3635C265.483 14.3635 265.886 14.4155 266.311 14.5195C266.736 14.6192 267.085 14.7362 267.358 14.8705C267.366 15.0048 267.351 15.1522 267.312 15.3125C267.273 15.4728 267.215 15.6223 267.137 15.761C267.063 15.8953 266.978 16.0015 266.883 16.0795C266.632 15.9668 266.35 15.8628 266.038 15.7675C265.73 15.6678 265.418 15.618 265.102 15.618C264.877 15.618 264.699 15.6743 264.569 15.787C264.443 15.8953 264.381 16.0318 264.381 16.1965C264.381 16.3438 264.433 16.4673 264.537 16.567C264.641 16.6667 264.801 16.7555 265.018 16.8335L265.824 17.126C266.313 17.2993 266.716 17.5485 267.033 17.8735C267.353 18.1942 267.514 18.621 267.514 19.154C267.514 19.778 267.273 20.272 266.792 20.636C266.311 21 265.659 21.182 264.836 21.182C264.372 21.182 263.939 21.1192 263.536 20.9935C263.133 20.8635 262.784 20.7118 262.489 20.5385ZM277.045 17.7695C277.045 18.4498 276.934 19.0478 276.713 19.5635C276.492 20.0748 276.165 20.4735 275.732 20.7595C275.303 21.0412 274.77 21.182 274.133 21.182C273.491 21.182 272.954 21.039 272.521 20.753C272.092 20.4627 271.769 20.0618 271.552 19.5505C271.335 19.0392 271.227 18.4455 271.227 17.7695C271.227 17.0935 271.335 16.4998 271.552 15.9885C271.773 15.4772 272.098 15.0785 272.527 14.7925C272.96 14.5065 273.496 14.3635 274.133 14.3635C274.774 14.3635 275.309 14.5087 275.738 14.799C276.171 15.085 276.496 15.4837 276.713 15.995C276.934 16.502 277.045 17.0935 277.045 17.7695ZM272.976 17.7695C272.976 18.1508 273.006 18.504 273.067 18.829C273.127 19.1497 273.242 19.4097 273.411 19.609C273.58 19.804 273.821 19.9015 274.133 19.9015C274.453 19.9015 274.696 19.804 274.861 19.609C275.03 19.4097 275.144 19.1497 275.205 18.829C275.266 18.504 275.296 18.1508 275.296 17.7695C275.296 17.3925 275.266 17.0415 275.205 16.7165C275.144 16.3915 275.03 16.1315 274.861 15.9365C274.696 15.7372 274.453 15.6375 274.133 15.6375C273.821 15.6375 273.58 15.7372 273.411 15.9365C273.242 16.1315 273.127 16.3915 273.067 16.7165C273.006 17.0415 272.976 17.3925 272.976 17.7695ZM279.131 14.474C279.465 14.474 279.71 14.5845 279.866 14.8055C280.022 15.0222 280.1 15.319 280.1 15.696V21C279.983 21.0217 279.848 21.0368 279.697 21.0455C279.549 21.0585 279.402 21.065 279.255 21.065C279.112 21.065 278.964 21.0585 278.813 21.0455C278.661 21.0368 278.525 21.0217 278.403 21V14.5585L278.488 14.474H279.131ZM283.766 19.4985C283.766 19.7368 283.785 19.9622 283.824 20.1745C283.868 20.3868 283.939 20.5732 284.039 20.7335C283.917 20.8332 283.761 20.9198 283.571 20.9935C283.384 21.0628 283.187 21.0975 282.979 21.0975C282.641 21.0975 282.405 21.0065 282.271 20.8245C282.136 20.6425 282.069 20.3782 282.069 20.0315V17.009C282.069 16.645 282.022 16.3785 281.926 16.2095C281.835 16.0405 281.658 15.956 281.393 15.956C281.216 15.956 281.021 15.9993 280.808 16.086C280.596 16.1727 280.39 16.3048 280.191 16.4825C279.991 16.6602 279.822 16.8833 279.684 17.152V15.605C279.983 15.293 280.325 15.02 280.711 14.786C281.101 14.5477 281.528 14.4285 281.991 14.4285C282.394 14.4285 282.726 14.526 282.986 14.721C283.25 14.9117 283.445 15.176 283.571 15.514C283.701 15.8477 283.766 16.229 283.766 16.658V19.4985ZM288.59 12.121C288.72 12.095 288.867 12.0777 289.032 12.069C289.201 12.0603 289.342 12.056 289.455 12.056C289.58 12.056 289.721 12.0603 289.877 12.069C290.037 12.0777 290.189 12.095 290.332 12.121V21C290.189 21.026 290.037 21.0433 289.877 21.052C289.721 21.0607 289.58 21.065 289.455 21.065C289.342 21.065 289.201 21.0607 289.032 21.052C288.867 21.0433 288.72 21.026 288.59 21V12.121ZM293.058 14.474C293.392 14.474 293.636 14.5845 293.792 14.8055C293.948 15.0222 294.026 15.319 294.026 15.696V21C293.909 21.0217 293.775 21.0368 293.623 21.0455C293.476 21.0585 293.329 21.065 293.181 21.065C293.038 21.065 292.891 21.0585 292.739 21.0455C292.588 21.0368 292.451 21.0217 292.33 21V14.5585L292.414 14.474H293.058ZM297.692 19.4985C297.692 19.7368 297.712 19.9622 297.751 20.1745C297.794 20.3868 297.866 20.5732 297.965 20.7335C297.844 20.8332 297.688 20.9198 297.497 20.9935C297.311 21.0628 297.114 21.0975 296.906 21.0975C296.568 21.0975 296.332 21.0065 296.197 20.8245C296.063 20.6425 295.996 20.3782 295.996 20.0315V17.009C295.996 16.645 295.948 16.3785 295.853 16.2095C295.762 16.0405 295.584 15.956 295.32 15.956C295.142 15.956 294.947 15.9993 294.735 16.086C294.523 16.1727 294.317 16.3048 294.117 16.4825C293.918 16.6602 293.749 16.8833 293.61 17.152V15.605C293.909 15.293 294.252 15.02 294.637 14.786C295.027 14.5477 295.454 14.4285 295.918 14.4285C296.321 14.4285 296.652 14.526 296.912 14.721C297.177 14.9117 297.372 15.176 297.497 15.514C297.627 15.8477 297.692 16.229 297.692 16.658V19.4985ZM298.874 20.5385C298.882 20.3522 298.937 20.1463 299.036 19.921C299.136 19.6913 299.251 19.5093 299.381 19.375C299.662 19.5223 299.957 19.6523 300.265 19.765C300.572 19.8777 300.882 19.934 301.194 19.934C301.493 19.934 301.725 19.8755 301.89 19.7585C302.059 19.6415 302.145 19.492 302.15 19.31C302.15 19.154 302.091 19.0132 301.974 18.8875C301.862 18.7618 301.686 18.6578 301.448 18.5755L300.707 18.309C300.408 18.1963 300.133 18.0577 299.881 17.893C299.634 17.724 299.437 17.5182 299.29 17.2755C299.147 17.0328 299.075 16.7425 299.075 16.4045C299.075 15.9842 299.177 15.6223 299.381 15.319C299.584 15.0113 299.868 14.7752 300.232 14.6105C300.596 14.4458 301.014 14.3635 301.487 14.3635C301.868 14.3635 302.271 14.4155 302.696 14.5195C303.12 14.6192 303.469 14.7362 303.742 14.8705C303.751 15.0048 303.736 15.1522 303.697 15.3125C303.658 15.4728 303.599 15.6223 303.521 15.761C303.448 15.8953 303.363 16.0015 303.268 16.0795C303.016 15.9668 302.735 15.8628 302.423 15.7675C302.115 15.6678 301.803 15.618 301.487 15.618C301.261 15.618 301.084 15.6743 300.954 15.787C300.828 15.8953 300.765 16.0318 300.765 16.1965C300.765 16.3438 300.817 16.4673 300.921 16.567C301.025 16.6667 301.186 16.7555 301.402 16.8335L302.208 17.126C302.698 17.2993 303.101 17.5485 303.417 17.8735C303.738 18.1942 303.898 18.621 303.898 19.154C303.898 19.778 303.658 20.272 303.177 20.636C302.696 21 302.044 21.182 301.22 21.182C300.757 21.182 300.323 21.1192 299.92 20.9935C299.517 20.8635 299.168 20.7118 298.874 20.5385ZM305.425 13.616C305.425 13.239 305.492 12.9703 305.626 12.81C305.761 12.6497 305.999 12.5695 306.341 12.5695H306.991L307.082 12.6605V19.1605C307.082 19.3425 307.124 19.4855 307.206 19.5895C307.293 19.6935 307.438 19.7455 307.641 19.7455H308.447C308.538 20.0098 308.584 20.285 308.584 20.571C308.584 20.6317 308.582 20.6967 308.577 20.766C308.573 20.831 308.562 20.8917 308.545 20.948C308.315 20.9783 308.06 21.0043 307.778 21.026C307.501 21.0477 307.232 21.0585 306.972 21.0585C306.456 21.0585 306.068 20.9307 305.808 20.675C305.553 20.415 305.425 20.0163 305.425 19.479V13.616ZM308.655 14.5325C308.707 14.7318 308.733 14.9333 308.733 15.137C308.733 15.3623 308.707 15.5703 308.655 15.761L306.374 15.722L304.43 15.761C304.387 15.5617 304.365 15.3537 304.365 15.137C304.365 14.942 304.387 14.7405 304.43 14.5325L306.413 14.565L308.655 14.5325ZM309.472 19.2385C309.472 18.7272 309.586 18.309 309.816 17.984C310.05 17.659 310.358 17.4185 310.739 17.2625C311.125 17.1065 311.547 17.0285 312.007 17.0285C312.223 17.0285 312.481 17.0372 312.78 17.0545C313.083 17.0675 313.361 17.1022 313.612 17.1585V18.257C313.404 18.2093 313.161 18.1812 312.884 18.1725C312.611 18.1595 312.368 18.153 312.156 18.153C311.814 18.153 311.558 18.2418 311.389 18.4195C311.22 18.5928 311.136 18.8268 311.136 19.1215C311.136 19.3425 311.201 19.5267 311.331 19.674C311.461 19.8213 311.64 19.895 311.87 19.895C312.156 19.895 312.453 19.7932 312.761 19.5895C313.073 19.3858 313.335 19.0977 313.547 18.725L313.794 19.882C313.629 20.0727 313.437 20.2698 313.216 20.4735C312.995 20.6728 312.735 20.8418 312.436 20.9805C312.141 21.1148 311.801 21.182 311.415 21.182C310.977 21.182 310.613 21.0845 310.323 20.8895C310.037 20.6945 309.823 20.4475 309.68 20.1485C309.541 19.8495 309.472 19.5462 309.472 19.2385ZM315.14 20.2265C315.105 20.3782 315.031 20.5407 314.919 20.714C314.81 20.8873 314.698 21.0152 314.581 21.0975C314.251 21.0672 313.98 20.974 313.768 20.818C313.556 20.662 313.395 20.4735 313.287 20.2525C313.183 20.0272 313.116 19.7997 313.086 19.57V16.7165C313.086 16.3785 313.005 16.1315 312.845 15.9755C312.685 15.8152 312.449 15.735 312.137 15.735C311.833 15.735 311.513 15.7827 311.175 15.878C310.837 15.969 310.496 16.073 310.154 16.19C310.028 16.0513 309.927 15.8693 309.849 15.644C309.775 15.4187 309.729 15.1977 309.712 14.981C309.981 14.8683 310.28 14.7687 310.609 14.682C310.943 14.5953 311.279 14.5282 311.617 14.4805C311.959 14.4285 312.273 14.4025 312.559 14.4025C312.962 14.4025 313.33 14.4762 313.664 14.6235C313.998 14.7708 314.266 15.007 314.47 15.332C314.674 15.6527 314.776 16.0752 314.776 16.5995V19.2515C314.776 19.4638 314.802 19.6523 314.854 19.817C314.906 19.9817 315.001 20.1182 315.14 20.2265ZM321.982 15.319C321.861 15.4187 321.77 15.5682 321.709 15.7675C321.649 15.9625 321.618 16.1727 321.618 16.398V20.0315C321.618 20.5862 321.592 21.0477 321.54 21.416C321.493 21.7887 321.421 22.0963 321.326 22.339C321.23 22.5817 321.113 22.7897 320.975 22.963C320.745 23.2577 320.431 23.4808 320.032 23.6325C319.634 23.7885 319.181 23.8665 318.674 23.8665C318.271 23.8665 317.857 23.8253 317.432 23.743C317.012 23.6607 316.644 23.5588 316.327 23.4375C316.327 23.2338 316.366 23.0107 316.444 22.768C316.527 22.5253 316.631 22.3325 316.756 22.1895C317.029 22.3152 317.322 22.4127 317.634 22.482C317.95 22.5513 318.245 22.586 318.518 22.586C318.895 22.586 319.187 22.5188 319.395 22.3845C319.608 22.2502 319.755 22.0638 319.837 21.8255C319.924 21.5915 319.967 21.3272 319.967 21.0325V16.281C319.967 15.8 320.084 15.3862 320.318 15.0395C320.552 14.6885 320.921 14.4913 321.423 14.448C321.54 14.526 321.655 14.6538 321.768 14.8315C321.885 15.0048 321.956 15.1673 321.982 15.319ZM316.067 17.7825C316.067 17.0285 316.186 16.398 316.425 15.891C316.667 15.384 316.982 15.0027 317.367 14.747C317.757 14.4913 318.173 14.3635 318.615 14.3635C319.018 14.3635 319.363 14.4285 319.649 14.5585C319.935 14.6842 320.177 14.8402 320.377 15.0265C320.576 15.2128 320.739 15.3992 320.864 15.5855L320.604 16.996C320.366 16.58 320.091 16.255 319.779 16.021C319.471 15.7827 319.179 15.6635 318.901 15.6635C318.55 15.6635 318.279 15.8455 318.089 16.2095C317.898 16.5735 317.803 17.1022 317.803 17.7955C317.803 18.4802 317.894 18.9763 318.076 19.284C318.262 19.5873 318.49 19.739 318.758 19.739C319.062 19.739 319.354 19.6393 319.636 19.44C319.917 19.2363 320.147 18.959 320.325 18.608L320.565 19.8365C320.435 20.0575 320.26 20.2655 320.039 20.4605C319.818 20.6555 319.564 20.8158 319.278 20.9415C318.992 21.0628 318.689 21.1235 318.368 21.1235C317.853 21.1235 317.424 20.9827 317.081 20.701C316.739 20.4193 316.483 20.0272 316.314 19.5245C316.15 19.0218 316.067 18.4412 316.067 17.7825ZM327.439 14.5455C327.439 14.7578 327.404 15.0178 327.335 15.3255C327.265 15.6332 327.159 15.9062 327.016 16.1445C326.917 16.1098 326.817 16.086 326.717 16.073C326.618 16.06 326.518 16.0492 326.418 16.0405C326.21 16.0405 326.026 16.0817 325.866 16.164C325.705 16.2463 325.565 16.359 325.443 16.502C325.322 16.6407 325.214 16.8032 325.118 16.9895C325.023 17.1758 324.938 17.373 324.865 17.581L324.65 17.308C324.668 16.9743 324.711 16.6407 324.78 16.307C324.854 15.969 324.964 15.6613 325.112 15.384C325.259 15.1023 325.458 14.877 325.71 14.708C325.965 14.539 326.282 14.4545 326.659 14.4545C326.819 14.4545 326.958 14.4632 327.075 14.4805C327.192 14.4935 327.313 14.5152 327.439 14.5455ZM323.006 15.332C323.04 15.1803 323.112 15.0157 323.22 14.838C323.333 14.6603 323.448 14.5303 323.565 14.448C324.085 14.513 324.475 14.7318 324.735 15.1045C324.995 15.4772 325.146 15.956 325.19 16.541V21C325.073 21.0217 324.941 21.0368 324.793 21.0455C324.646 21.0585 324.496 21.065 324.345 21.065C324.197 21.065 324.048 21.0585 323.896 21.0455C323.749 21.0368 323.615 21.0217 323.493 21V16.6775C323.493 16.3092 323.439 16.0145 323.331 15.7935C323.222 15.5725 323.114 15.4187 323.006 15.332ZM327.842 19.2385C327.842 18.7272 327.957 18.309 328.186 17.984C328.42 17.659 328.728 17.4185 329.109 17.2625C329.495 17.1065 329.917 17.0285 330.377 17.0285C330.593 17.0285 330.851 17.0372 331.15 17.0545C331.454 17.0675 331.731 17.1022 331.982 17.1585V18.257C331.774 18.2093 331.532 18.1812 331.254 18.1725C330.981 18.1595 330.739 18.153 330.526 18.153C330.184 18.153 329.928 18.2418 329.759 18.4195C329.59 18.5928 329.506 18.8268 329.506 19.1215C329.506 19.3425 329.571 19.5267 329.701 19.674C329.831 19.8213 330.011 19.895 330.24 19.895C330.526 19.895 330.823 19.7932 331.131 19.5895C331.443 19.3858 331.705 19.0977 331.917 18.725L332.164 19.882C332 20.0727 331.807 20.2698 331.586 20.4735C331.365 20.6728 331.105 20.8418 330.806 20.9805C330.511 21.1148 330.171 21.182 329.785 21.182C329.348 21.182 328.984 21.0845 328.693 20.8895C328.407 20.6945 328.193 20.4475 328.05 20.1485C327.911 19.8495 327.842 19.5462 327.842 19.2385ZM333.51 20.2265C333.475 20.3782 333.401 20.5407 333.289 20.714C333.18 20.8873 333.068 21.0152 332.951 21.0975C332.621 21.0672 332.351 20.974 332.138 20.818C331.926 20.662 331.766 20.4735 331.657 20.2525C331.553 20.0272 331.486 19.7997 331.456 19.57V16.7165C331.456 16.3785 331.376 16.1315 331.215 15.9755C331.055 15.8152 330.819 15.735 330.507 15.735C330.203 15.735 329.883 15.7827 329.545 15.878C329.207 15.969 328.867 16.073 328.524 16.19C328.399 16.0513 328.297 15.8693 328.219 15.644C328.145 15.4187 328.1 15.1977 328.082 14.981C328.351 14.8683 328.65 14.7687 328.979 14.682C329.313 14.5953 329.649 14.5282 329.987 14.4805C330.329 14.4285 330.643 14.4025 330.929 14.4025C331.332 14.4025 331.701 14.4762 332.034 14.6235C332.368 14.7708 332.637 15.007 332.84 15.332C333.044 15.6527 333.146 16.0752 333.146 16.5995V19.2515C333.146 19.4638 333.172 19.6523 333.224 19.817C333.276 19.9817 333.371 20.1182 333.51 20.2265ZM335.606 14.474C335.94 14.474 336.185 14.5845 336.341 14.8055C336.501 15.0222 336.581 15.319 336.581 15.696V21C336.464 21.0217 336.33 21.0368 336.178 21.0455C336.031 21.0585 335.883 21.065 335.736 21.065C335.593 21.065 335.446 21.0585 335.294 21.0455C335.142 21.0368 335.006 21.0217 334.885 21V14.565L334.969 14.474H335.606ZM338.382 17.009C338.382 16.6103 338.317 16.3352 338.187 16.1835C338.061 16.0318 337.901 15.956 337.706 15.956C337.506 15.9603 337.294 16.0318 337.069 16.1705C336.843 16.3092 336.635 16.4868 336.445 16.7035C336.258 16.9158 336.117 17.1433 336.022 17.386V15.8455C336.221 15.5985 336.442 15.3667 336.685 15.15C336.932 14.9333 337.194 14.76 337.472 14.63C337.753 14.4957 338.046 14.4285 338.349 14.4285C338.726 14.4285 339.042 14.5173 339.298 14.695C339.558 14.8727 339.753 15.1153 339.883 15.423C340.017 15.7307 340.085 16.0773 340.085 16.463V21C339.963 21.0217 339.827 21.0368 339.675 21.0455C339.528 21.0585 339.383 21.065 339.24 21.065C339.092 21.065 338.943 21.0585 338.791 21.0455C338.644 21.0368 338.507 21.0217 338.382 21V17.009ZM341.885 16.996C341.885 16.5973 341.818 16.3243 341.684 16.177C341.554 16.0297 341.391 15.956 341.196 15.956C341.01 15.956 340.806 16.0253 340.585 16.164C340.364 16.3027 340.154 16.4847 339.955 16.71C339.76 16.931 339.601 17.1737 339.48 17.438V15.7415C339.684 15.5075 339.916 15.2908 340.176 15.0915C340.436 14.8922 340.711 14.7318 341.001 14.6105C341.296 14.4892 341.59 14.4285 341.885 14.4285C342.266 14.4285 342.583 14.5195 342.834 14.7015C343.085 14.8835 343.274 15.1283 343.4 15.436C343.525 15.7437 343.588 16.0925 343.588 16.4825V19.4985C343.588 19.7368 343.608 19.9622 343.647 20.1745C343.686 20.3868 343.755 20.5732 343.855 20.7335C343.733 20.8332 343.579 20.9198 343.393 20.9935C343.207 21.0628 343.007 21.0975 342.795 21.0975C342.457 21.0975 342.221 21.0065 342.087 20.8245C341.952 20.6425 341.885 20.3782 341.885 20.0315V16.996Z" fill="white"/>
<path d="M1.46484 24V9.68359H4.35547V15.3184H10.0195V9.68359H12.9102V24H10.0195V17.7402H4.35547V24H1.46484ZM22.7148 24V22.4473C22.3372 23.0007 21.8392 23.4368 21.2207 23.7559C20.6087 24.0749 19.9609 24.2344 19.2773 24.2344C18.5807 24.2344 17.9557 24.0814 17.4023 23.7754C16.849 23.4694 16.4486 23.0397 16.2012 22.4863C15.9538 21.9329 15.8301 21.168 15.8301 20.1914V13.6289H18.5742V18.3945C18.5742 19.8529 18.623 20.748 18.7207 21.0801C18.8249 21.4056 19.0104 21.666 19.2773 21.8613C19.5443 22.0501 19.8828 22.1445 20.293 22.1445C20.7617 22.1445 21.1816 22.0176 21.5527 21.7637C21.9238 21.5033 22.1777 21.1842 22.3145 20.8066C22.4512 20.4225 22.5195 19.4883 22.5195 18.0039V13.6289H25.2637V24H22.7148ZM27.998 24V9.68359H30.7422V14.8398C31.5885 13.8763 32.5911 13.3945 33.75 13.3945C35.013 13.3945 36.0579 13.8535 36.8848 14.7715C37.7116 15.6829 38.125 16.9948 38.125 18.707C38.125 20.4779 37.7018 21.8418 36.8555 22.7988C36.0156 23.7559 34.9935 24.2344 33.7891 24.2344C33.1966 24.2344 32.6107 24.0879 32.0312 23.7949C31.4583 23.4954 30.9635 23.056 30.5469 22.4766V24H27.998ZM30.7227 18.5898C30.7227 19.6641 30.8919 20.4583 31.2305 20.9727C31.7057 21.7018 32.3372 22.0664 33.125 22.0664C33.7305 22.0664 34.2448 21.8092 34.668 21.2949C35.0977 20.7741 35.3125 19.957 35.3125 18.8438C35.3125 17.6589 35.0977 16.806 34.668 16.2852C34.2383 15.7578 33.6882 15.4941 33.0176 15.4941C32.36 15.4941 31.8132 15.7513 31.377 16.2656C30.9408 16.7734 30.7227 17.5482 30.7227 18.5898ZM47.168 24V22.4473C46.7904 23.0007 46.2923 23.4368 45.6738 23.7559C45.0618 24.0749 44.4141 24.2344 43.7305 24.2344C43.0339 24.2344 42.4089 24.0814 41.8555 23.7754C41.3021 23.4694 40.9017 23.0397 40.6543 22.4863C40.4069 21.9329 40.2832 21.168 40.2832 20.1914V13.6289H43.0273V18.3945C43.0273 19.8529 43.0762 20.748 43.1738 21.0801C43.278 21.4056 43.4635 21.666 43.7305 21.8613C43.9974 22.0501 44.3359 22.1445 44.7461 22.1445C45.2148 22.1445 45.6348 22.0176 46.0059 21.7637C46.377 21.5033 46.6309 21.1842 46.7676 20.8066C46.9043 20.4225 46.9727 19.4883 46.9727 18.0039V13.6289H49.7168V24H47.168ZM62.002 24H59.2578V18.707C59.2578 17.5872 59.1992 16.8646 59.082 16.5391C58.9648 16.207 58.7728 15.9499 58.5059 15.7676C58.2454 15.5853 57.9297 15.4941 57.5586 15.4941C57.0833 15.4941 56.6569 15.6243 56.2793 15.8848C55.9017 16.1452 55.6413 16.4902 55.498 16.9199C55.3613 17.3496 55.293 18.1439 55.293 19.3027V24H52.5488V13.6289H55.0977V15.1523C56.0026 13.9805 57.1419 13.3945 58.5156 13.3945C59.1211 13.3945 59.6745 13.5052 60.1758 13.7266C60.6771 13.9414 61.0547 14.2181 61.3086 14.5566C61.569 14.8952 61.748 15.2793 61.8457 15.709C61.9499 16.1387 62.002 16.7539 62.002 17.5547V24ZM64.541 24.6836L67.6758 25.0645C67.7279 25.429 67.8483 25.6797 68.0371 25.8164C68.2975 26.0117 68.7077 26.1094 69.2676 26.1094C69.9837 26.1094 70.5208 26.002 70.8789 25.7871C71.1198 25.6439 71.3021 25.4128 71.4258 25.0938C71.5104 24.8659 71.5527 24.446 71.5527 23.834V22.3203C70.7324 23.4401 69.6973 24 68.4473 24C67.054 24 65.9505 23.4108 65.1367 22.2324C64.4987 21.3014 64.1797 20.1426 64.1797 18.7559C64.1797 17.0176 64.5964 15.6895 65.4297 14.7715C66.2695 13.8535 67.3112 13.3945 68.5547 13.3945C69.8372 13.3945 70.8952 13.9577 71.7285 15.084V13.6289H74.2969V22.9355C74.2969 24.1595 74.196 25.0742 73.9941 25.6797C73.7923 26.2852 73.5091 26.7604 73.1445 27.1055C72.7799 27.4505 72.2917 27.7207 71.6797 27.916C71.0742 28.1113 70.306 28.209 69.375 28.209C67.6172 28.209 66.3704 27.9062 65.6348 27.3008C64.8991 26.7018 64.5312 25.9401 64.5312 25.0156C64.5312 24.9245 64.5345 24.8138 64.541 24.6836ZM66.9922 18.5996C66.9922 19.6999 67.2038 20.5072 67.627 21.0215C68.0566 21.5293 68.584 21.7832 69.209 21.7832C69.8796 21.7832 70.446 21.5228 70.9082 21.002C71.3704 20.4746 71.6016 19.6966 71.6016 18.668C71.6016 17.5938 71.3802 16.7962 70.9375 16.2754C70.4948 15.7546 69.9349 15.4941 69.2578 15.4941C68.6003 15.4941 68.0566 15.7513 67.627 16.2656C67.2038 16.7734 66.9922 17.5514 66.9922 18.5996ZM77.0215 12.2227V9.68359H79.7656V12.2227H77.0215ZM77.0215 24V13.6289H79.7656V24H77.0215ZM88.2129 24V9.68359H91.1035V16.041L96.9434 9.68359H100.83L95.4395 15.2598L101.123 24H97.3828L93.4473 17.2812L91.1035 19.6738V24H88.2129ZM104.658 16.793L102.168 16.3438C102.448 15.3411 102.93 14.599 103.613 14.1172C104.297 13.6354 105.312 13.3945 106.66 13.3945C107.884 13.3945 108.796 13.541 109.395 13.834C109.993 14.1204 110.413 14.4883 110.654 14.9375C110.902 15.3802 111.025 16.1973 111.025 17.3887L110.996 20.5918C110.996 21.5033 111.038 22.1771 111.123 22.6133C111.214 23.043 111.38 23.5052 111.621 24H108.906C108.835 23.8177 108.747 23.5475 108.643 23.1895C108.597 23.0267 108.564 22.9193 108.545 22.8672C108.076 23.3229 107.575 23.6647 107.041 23.8926C106.507 24.1204 105.938 24.2344 105.332 24.2344C104.264 24.2344 103.421 23.9447 102.803 23.3652C102.191 22.7858 101.885 22.0534 101.885 21.168C101.885 20.582 102.025 20.0612 102.305 19.6055C102.585 19.1432 102.975 18.7917 103.477 18.5508C103.984 18.3034 104.714 18.0885 105.664 17.9062C106.947 17.6654 107.835 17.4408 108.33 17.2324V16.959C108.33 16.4316 108.2 16.0573 107.939 15.8359C107.679 15.6081 107.188 15.4941 106.465 15.4941C105.977 15.4941 105.596 15.5918 105.322 15.7871C105.049 15.9759 104.827 16.3112 104.658 16.793ZM108.33 19.0195C107.979 19.1367 107.422 19.2767 106.66 19.4395C105.898 19.6022 105.4 19.7617 105.166 19.918C104.808 20.1719 104.629 20.4941 104.629 20.8848C104.629 21.2689 104.772 21.6009 105.059 21.8809C105.345 22.1608 105.71 22.3008 106.152 22.3008C106.647 22.3008 107.119 22.138 107.568 21.8125C107.9 21.5651 108.118 21.2624 108.223 20.9043C108.294 20.6699 108.33 20.224 108.33 19.5664V19.0195ZM113.535 13.6289H116.064V15.0449C116.969 13.9447 118.047 13.3945 119.297 13.3945C119.961 13.3945 120.537 13.5312 121.025 13.8047C121.514 14.0781 121.914 14.4915 122.227 15.0449C122.682 14.4915 123.174 14.0781 123.701 13.8047C124.229 13.5312 124.792 13.3945 125.391 13.3945C126.152 13.3945 126.797 13.5508 127.324 13.8633C127.852 14.1693 128.245 14.6217 128.506 15.2207C128.695 15.6634 128.789 16.3796 128.789 17.3691V24H126.045V18.0723C126.045 17.0436 125.951 16.3796 125.762 16.0801C125.508 15.6895 125.117 15.4941 124.59 15.4941C124.206 15.4941 123.844 15.6113 123.506 15.8457C123.167 16.0801 122.923 16.4251 122.773 16.8809C122.624 17.3301 122.549 18.043 122.549 19.0195V24H119.805V18.3164C119.805 17.3073 119.756 16.6562 119.658 16.3633C119.561 16.0703 119.408 15.8522 119.199 15.709C118.997 15.5658 118.721 15.4941 118.369 15.4941C117.946 15.4941 117.565 15.6081 117.227 15.8359C116.888 16.0638 116.644 16.3926 116.494 16.8223C116.351 17.252 116.279 17.9648 116.279 18.9609V24H113.535V13.6289ZM131.533 12.2227V9.68359H134.277V12.2227H131.533ZM131.533 24V13.6289H134.277V24H131.533ZM143.193 16.373V13.6289H145.938V16.373H143.193ZM143.193 24V21.2559H145.938V24H143.193Z" fill="black"/>
<defs>
<linearGradient id="paint0_linear_69_248" x1="174" y1="34" x2="429" y2="7.30511e-05" gradientUnits="userSpaceOnUse">
<stop stop-color="#F09433"/>
<stop offset="1" stop-color="#BC1888" stop-opacity="0.9"/>
</linearGradient>
</defs>
</svg>
